<svg width="60" height="60" viewBox="0 0 60 60" fill="none" xmlns="http://www.w3.org/2000/svg">
<path d="M45 7.5C43.0109 7.5 41.1032 8.29018 39.6967 9.6967C38.2902 11.1032 37.5 13.0109 37.5 15V45C37.5 46.9891 38.2902 48.8968 39.6967 50.3033C41.1032 51.7098 43.0109 52.5 45 52.5C46.9891 52.5 48.8968 51.7098 50.3033 50.3033C51.7098 48.8968 52.5 46.9891 52.5 45C52.5 43.0109 51.7098 41.1032 50.3033 39.6967C48.8968 38.2902 46.9891 37.5 45 37.5H15C13.0109 37.5 11.1032 38.2902 9.6967 39.6967C8.29018 41.1032 7.5 43.0109 7.5 45C7.5 46.9891 8.29018 48.8968 9.6967 50.3033C11.1032 51.7098 13.0109 52.5 15 52.5C16.9891 52.5 18.8968 51.7098 20.3033 50.3033C21.7098 48.8968 22.5 46.9891 22.5 45V15C22.5 13.0109 21.7098 11.1032 20.3033 9.6967C18.8968 8.29018 16.9891 7.5 15 7.5C13.0109 7.5 11.1032 8.29018 9.6967 9.6967C8.29018 11.1032 7.5 13.0109 7.5 15C7.5 16.9891 8.29018 18.8968 9.6967 20.3033C11.1032 21.7098 13.0109 22.5 15 22.5H45C46.9891 22.5 48.8968 21.7098 50.3033 20.3033C51.7098 18.8968 52.5 16.9891 52.5 15C52.5 13.0109 51.7098 11.1032 50.3033 9.6967C48.8968 8.29018 46.9891 7.5 45 7.5Z" stroke="#37A282" stroke-width="2" stroke-linecap="round" stroke-linejoin="round"/>
</svg>
