<svg width="60" height="60" viewBox="0 0 60 60" fill="none" xmlns="http://www.w3.org/2000/svg">
<path d="M12.5 13.75C12.5 11.4294 13.4219 9.20376 15.0628 7.56282C16.7038 5.92187 18.9294 5 21.25 5H30V22.5H21.25C18.9294 22.5 16.7038 21.5781 15.0628 19.9372C13.4219 18.2962 12.5 16.0706 12.5 13.75Z" stroke="#B161D7" stroke-width="2" stroke-linecap="round" stroke-linejoin="round"/>
<path d="M30 5H38.75C39.8991 5 41.0369 5.22633 42.0985 5.66605C43.1601 6.10578 44.1247 6.7503 44.9372 7.56282C45.7497 8.37533 46.3942 9.33992 46.8339 10.4015C47.2737 11.4631 47.5 12.6009 47.5 13.75C47.5 14.8991 47.2737 16.0369 46.8339 17.0985C46.3942 18.1601 45.7497 19.1247 44.9372 19.9372C44.1247 20.7497 43.1601 21.3942 42.0985 21.8339C41.0369 22.2737 39.8991 22.5 38.75 22.5H30V5Z" stroke="#B161D7" stroke-width="2" stroke-linecap="round" stroke-linejoin="round"/>
<path d="M30 31.25C30 30.1009 30.2263 28.9631 30.6661 27.9015C31.1058 26.8399 31.7503 25.8753 32.5628 25.0628C33.3753 24.2503 34.3399 23.6058 35.4015 23.1661C36.4631 22.7263 37.6009 22.5 38.75 22.5C39.8991 22.5 41.0369 22.7263 42.0985 23.1661C43.1601 23.6058 44.1247 24.2503 44.9372 25.0628C45.7497 25.8753 46.3942 26.8399 46.8339 27.9015C47.2737 28.9631 47.5 30.1009 47.5 31.25C47.5 32.3991 47.2737 33.5369 46.8339 34.5985C46.3942 35.6601 45.7497 36.6247 44.9372 37.4372C44.1247 38.2497 43.1601 38.8942 42.0985 39.3339C41.0369 39.7737 39.8991 40 38.75 40C37.6009 40 36.4631 39.7737 35.4015 39.3339C34.3399 38.8942 33.3753 38.2497 32.5628 37.4372C31.7503 36.6247 31.1058 35.6601 30.6661 34.5985C30.2263 33.5369 30 32.3991 30 31.25V31.25Z" stroke="#B161D7" stroke-width="2" stroke-linecap="round" stroke-linejoin="round"/>
<path d="M12.5 48.75C12.5 46.4294 13.4219 44.2038 15.0628 42.5628C16.7038 40.9219 18.9294 40 21.25 40H30V48.75C30 51.0706 29.0781 53.2962 27.4372 54.9372C25.7962 56.5781 23.5706 57.5 21.25 57.5C18.9294 57.5 16.7038 56.5781 15.0628 54.9372C13.4219 53.2962 12.5 51.0706 12.5 48.75Z" stroke="#B161D7" stroke-width="2" stroke-linecap="round" stroke-linejoin="round"/>
<path d="M12.5 31.25C12.5 28.9294 13.4219 26.7038 15.0628 25.0628C16.7038 23.4219 18.9294 22.5 21.25 22.5H30V40H21.25C18.9294 40 16.7038 39.0781 15.0628 37.4372C13.4219 35.7962 12.5 33.5706 12.5 31.25Z" stroke="#B161D7" stroke-width="2" stroke-linecap="round" stroke-linejoin="round"/>
</svg>
