<svg width="40" height="40" viewBox="0 0 40 40" fill="none" xmlns="http://www.w3.org/2000/svg">
<path d="M34.7334 7.68339C33.8821 6.83173 32.8714 6.15613 31.759 5.69519C30.6465 5.23425 29.4542 4.99701 28.2501 4.99701C27.0459 4.99701 25.8536 5.23425 24.7411 5.69519C23.6287 6.15613 22.618 6.83173 21.7667 7.68339L20.0001 9.45005L18.2334 7.68339C16.5139 5.9639 14.1818 4.9979 11.7501 4.9979C9.31833 4.9979 6.98621 5.9639 5.26672 7.68339C3.54724 9.40287 2.58124 11.735 2.58124 14.1667C2.58124 16.5984 3.54724 18.9306 5.26672 20.6501L7.03339 22.4167L20.0001 35.3834L32.9667 22.4167L34.7334 20.6501C35.585 19.7988 36.2606 18.7881 36.7216 17.6756C37.1825 16.5632 37.4198 15.3709 37.4198 14.1667C37.4198 12.9626 37.1825 11.7702 36.7216 10.6578C36.2606 9.54536 35.585 8.53464 34.7334 7.68339V7.68339Z" stroke="#CE48B1" stroke-width="2" stroke-linecap="round" stroke-linejoin="round"/>
</svg>
