<svg xmlns="http://www.w3.org/2000/svg" viewBox="0 0 40 40"><path fill="#f78f8f" d="M3.293,37.72c0.225-2.446,0.939-7.464,2.295-8.859c0.838-0.861,1.951-1.336,3.134-1.336 s2.296,0.475,3.134,1.336c1.739,1.789,1.739,4.7,0,6.488C10.506,36.738,5.668,37.481,3.293,37.72z"/><path fill="#c74343" d="M8.723,28.024c1.047,0,2.032,0.421,2.775,1.185c1.552,1.597,1.552,4.195,0,5.791 c-1.053,1.083-4.853,1.837-7.648,2.158c0.304-2.894,1.034-6.854,2.099-7.949C6.691,28.445,7.676,28.024,8.723,28.024 M8.723,27.024c-1.264,0-2.528,0.496-3.492,1.488c-1.929,1.984-2.485,9.759-2.485,9.759s7.54-0.589,9.469-2.573 s1.929-5.201,0-7.185C11.25,27.52,9.986,27.024,8.723,27.024L8.723,27.024z"/><path fill="#ffeea3" d="M9.887,33.302c-0.643,0.661-3.112,0.823-3.112,0.823s0.141-2.557,0.784-3.218s1.685-0.661,2.328,0 S10.529,32.641,9.887,33.302z"/><path fill="#8bb7f0" d="M13.379,35.694c-0.304,0-0.589-0.123-0.805-0.346l-6.985-7.186c-0.455-0.468-0.455-1.229,0-1.697 l4.298-4.421l8.615,8.862l-4.317,4.441C13.968,35.571,13.682,35.694,13.379,35.694z"/><path fill="#4e7ab5" d="M9.887,22.762l7.917,8.146l-3.979,4.093c-0.121,0.124-0.28,0.193-0.447,0.193 s-0.326-0.069-0.447-0.193l-6.984-7.185c-0.264-0.271-0.264-0.73,0-1.001L9.887,22.762 M9.887,21.327l-4.656,4.79 c-0.643,0.661-0.643,1.734,0,2.395l6.984,7.185c0.321,0.331,0.743,0.496,1.164,0.496c0.421,0,0.843-0.165,1.164-0.496l4.656-4.79 L9.887,21.327L9.887,21.327z"/><path fill="#8bb7f0" d="M18.449,34.209L6.696,22.117l-4.128-2.124l4.104-4.222c0.527-0.542,1.226-0.841,1.968-0.841 c0.183,0,0.366,0.02,0.545,0.056l3.941,0.812l11.43,11.758l0.79,4.064c0.185,0.952-0.102,1.931-0.768,2.615l-4.077,4.195 L18.449,34.209z"/><path fill="#4e7ab5" d="M8.641,15.431L8.641,15.431c0.148,0,0.298,0.015,0.444,0.045l3.791,0.78l11.218,11.542 l0.762,3.918c0.154,0.792-0.084,1.604-0.636,2.172l-3.581,3.684l-1.705-3.508l-0.07-0.145l-0.112-0.115L7.111,21.827L6.997,21.71 l-0.146-0.075l-3.455-1.777L7.03,16.12C7.462,15.676,8.034,15.431,8.641,15.431 M8.641,14.431c-0.864,0-1.704,0.351-2.328,0.992 l-4.574,4.706l4.656,2.395L18.034,34.5l2.328,4.79l4.574-4.706c0.778-0.801,1.116-1.949,0.9-3.059l-0.819-4.21l-11.64-11.976 l-4.092-0.842C9.072,14.453,8.855,14.431,8.641,14.431L8.641,14.431z"/><g><path fill="#c2e8ff" d="M5.928,23.722L24.213,4.909c1.51-1.554,5.021-2.409,9.885-2.409c1.458,0,2.663,0.079,3.263,0.127 c0.159,1.98,0.665,10.587-2.225,13.561L16.871,34.979L5.928,23.722z"/><path fill="#7496c4" d="M34.1,3L34.1,3c1.154,0,2.147,0.05,2.8,0.094c0.247,3.361,0.234,10.32-2.123,12.745L16.871,34.263 L6.625,23.722L24.572,5.258C25.987,3.802,29.371,3,34.1,3 M34.1,2c-3.385,0-8.16,0.415-10.246,2.561 C20.452,8.062,5.231,23.722,5.231,23.722l11.64,11.976c0,0,15.162-15.6,18.624-19.161s2.328-14.371,2.328-14.371S36.239,2,34.1,2 L34.1,2z"/></g><g><path fill="#8bb7f0" d="M28.431 8.718A3.025 3.127 0 1 0 28.431 14.972000000000001A3.025 3.127 0 1 0 28.431 8.718Z"/><path fill="#4e7ab5" d="M28.431,9.218c1.393,0,2.525,1.178,2.525,2.627s-1.133,2.627-2.525,2.627 c-1.393,0-2.525-1.179-2.525-2.627S27.039,9.218,28.431,9.218 M28.431,8.218c-1.947,0-3.525,1.624-3.525,3.627 c0,2.003,1.578,3.627,3.525,3.627c1.947,0,3.525-1.624,3.525-3.627C31.956,9.842,30.378,8.218,28.431,8.218L28.431,8.218z"/></g><g><path fill="#8bb7f0" d="M21.38 15.972000000000001A3.025 3.127 0 1 0 21.38 22.226A3.025 3.127 0 1 0 21.38 15.972000000000001Z"/><path fill="#4e7ab5" d="M21.38,16.472c1.393,0,2.525,1.178,2.525,2.627s-1.133,2.627-2.525,2.627s-2.525-1.178-2.525-2.627 S19.988,16.472,21.38,16.472 M21.38,15.472c-1.947,0-3.525,1.624-3.525,3.627s1.578,3.627,3.525,3.627 c1.947,0,3.525-1.624,3.525-3.627S23.327,15.472,21.38,15.472L21.38,15.472z"/></g></svg>