<svg xmlns="http://www.w3.org/2000/svg" width="512" height="512" viewBox="0 0 512 512"><path fill="#FEBF10" d="M267.6 167c-2-.1-3.9-.6-5.6-1.6-2.3-1.4-3.7-3.3-4.9-5.3-1.5 1-3.1 1.8-4.7 2.5 4.1 7.3 7.2 15.3 9.8 22.8.3.8.6 1.6.8 2.4-.1-.4-.1-.8-.1-1.2C263.4 180.3 264.7 173.1 267.6 167zM278.2 241.3c-1.2.4-2.3.7-3.3.9-7.1 1.8-13.8 1.5-20.6.1 2.7 3.9 7.1 6.1 12.4 6.2 5 .1 10.4-1.6 11.9-6.2C278.4 241.9 278.3 241.6 278.2 241.3z"/><path fill="#FEBF10" d="M306.8 136.9c-5.9-14-21.3-21.9-35.5-24.8-15.4-3.2-33.2-2.2-46.9 6.4-7.4 4.7-13.7 11.4-16 20-3.3 12.2.1 24.4 7.3 34.6 12.5 17.7 43.2 31.8 36.6 57.5 2.3.7 4.7 1.4 7.1 1.8-1.4-14-2.2-28.3-6.9-41.7-2-5.8-4.7-11.5-7.2-17.2-1.7-3.7-3.5-7.5-5.8-11-1.8-1.2-3.3-3.2-4.3-6-1.9-5 5.3-9.9 9-5.7.8.9 1.5 1.8 2.2 2.7 1-.3 1.9-.6 2.8-1.2 2.1-1.2 4-2.5 5.6-4.2 2.3-2.4 6.9-2.4 8.7.7.8 1.4 2.2 6.3 3.7 7 3.1 1.4 7.5-1.2 10.2-2.4 5.2-2.4 8.3 3.9 6.1 8 .4 1.5.1 3.2-1.5 4.7-5.3 4.8-7.5 13.2-7.9 20.2-.3 6-8.5 7.3-10.5 3 4.3 13.9 5.3 28.4 6.8 42.9 2.5-.6 5-1.3 7.3-2.3.7-.3 1.5-.7 2.2-1.1 0-.3-.1-.5-.1-.8-.8-19.7 9.9-34 19.5-50.1C306.6 165.5 312.7 150.9 306.8 136.9zM188 458.4c2.6-.2 3.6-1.1 3.9-2.1C191.1 457.5 189.8 458.3 188 458.4z"/><path fill="#BCBCBC" d="M466.3,275.2c-0.4-2.1-1.8-4-3-5.7c-0.4-0.6-0.7-1.2-0.8-1.8c-0.1-0.1-0.1-0.1-0.2-0.2c-7.5-10-13.9-21-22-30.5c-7.2-8.3-15.4-15.9-20.2-25.9c-5.3-10.8-4-24.4-1.6-35.8c2.5-11.5,1.4-23.3,1.8-35c-0.5-0.7-0.8-1.5-0.9-2.5c-1.3-9.9-5.3-19.2-10.4-27.7c-12.8-21.3-29.8-41.2-50.8-54.8c-18.8-12.2-40-20-62.2-23.5c-44.9-7-91,1.9-132.8,18.7c-12.5,10.7-26.8,19.6-37.4,32.3c-11.6,13.8-19.9,31-25.3,48.2c-8.3,26.6-13.5,56.2-8.1,83.9c5.5,28.1,20.5,53.3,34.1,78c7.8,14,15.8,28,23.9,41.8c7.8,13.2,16.2,26.1,23.4,39.6c12,22.3,21.2,48.3,16.6,73.8c2.3,1.5,3,4.7,1.9,7.1c0.1,0.2,0.3,0.4,0.4,0.5c0.8,1,1.6,1.9,2.4,2.9c1.9,2,3.6,3.7,6.1,5.1c7.5,4,15.6,6.3,23.9,7.6c13.2,2,26.7,1.7,40,2.6c13.4,0.9,27.1,1.9,40.6,0.2c11.1-1.4,22.5-4.6,29.1-14.4c0.4-0.6,0.9-1.1,1.4-1.5c0-0.3,0-0.8-0.1-1.1c-0.4-1.5-0.8-2.9-1.2-4.3c-0.9-3.1-1.8-6.2-2.4-9.4c-1-6.1-0.2-13.3,1-19.4c1.5-7.1,4-15.1,10.6-19.1c5.7-3.5,11.9-5.3,18.5-5.9c1.1-0.8,2.5-1.3,4.1-1.1c11.6,1.3,23.5,1.1,35.2,1.3c4.3,0.1,10.1,0.5,13.9-2c4.8-3.2,6.2-8.3,6.7-13.8c0.6-6,0.9-12.8,4.3-18.1c2.1-3.2,4.5-6,7-8.9c2.5-2.9,5.2-6,6.6-9.5c1.4-3.5,0-5-3.2-6.6c-1.5-0.8-2.3-1.9-2.7-3.1c-2.2-2.9-1.1-8.5,3.7-9.3c12-2,2.6-12-2.2-16.4c-6.3-5.9-8.8-12.5-6.8-21.1c0-0.1,0-0.2,0.1-0.3c0.2-1.2,0.9-2.4,2.2-3.3c6.8-4.7,17.1-4.2,24.9-5.8c3.1-0.6,7.7-1.8,9.2-3.8C466.5,276.7,466.6,276.8,466.3,275.2z M173.8,203.1c-7-3.3-17.1,2.3-24.5,2.6c-7.1,0.2-7.9-10.7-0.8-11c10.2-0.3,20.1-6.2,30.2-1.4C185.1,196.2,180.2,206.1,173.8,203.1z M175.7,139.9c-1.2-1.6-4.3-2.1-6-2.7c-2.1-0.8-4.3-1.8-6.3-2.9c-4.9-2.8-9.4-6.1-14.1-9.3c-5.9-4,1.5-12.2,7.3-8.3c5.4,3.7,10.7,7.8,16.9,10.2c4.4,1.7,8.5,3,11.4,6.9C189.1,139.4,179.9,145.5,175.7,139.9z M281.8,74.3c3-2.3,3.8-10.9,4.7-14.6c1.2-4.5,2.6-11.2,7.9-12.7c6.5-1.8,10.2,7.6,4.4,10.1c-0.1,0.2-0.2,0.4-0.4,0.9c-0.3,0.9-0.6,1.9-0.9,2.8c-0.7,2.7-1.3,5.5-2.1,8.2c-1.4,5.3-3,10.9-7.6,14.4C282.3,87.7,276.2,78.6,281.8,74.3z M217.4,59.7c-1.2-3.1,0.1-0.2,0.7,0.7c1.2,1.9,1.2,3.8,0.4,5.3c1.2,3.3,3.4,6.3,5.1,9.5c2.4,4.4,4.5,8.8,4.7,13.9c0.3,7.1-10.6,7.9-11,0.8c-0.5-10.3-10.8-17.3-10.7-28C206.9,55.8,215.1,53.6,217.4,59.7z M316.9,166.9c-7.4,20.2-26,36-26.1,58.4c0.6,0.8,1,1.9,1,3.2c0,2.8-1.1,5-2.8,6.8c0.6,0.8,1,1.9,1,3.2c0.2,7.1-3.2,13.1-8.4,16.8c1.1,1.8,1.1,4.1-0.8,6.1c-5.7,5.7-11.2,9.7-19.6,7.8c-7-1.6-11.7-8-12.7-14.8c-0.1-0.8-0.1-1.5,0.1-2.1c-3.1-2.8-5.5-6.5-6.8-11.2c-0.5-1.8-0.1-3.3,0.7-4.5c-0.4-1.1-0.5-2.4-0.3-3.6c-0.9-1.1-1.2-2.6-0.7-4.4c3.7-13.2-8.5-22.8-17.3-30.7c-9.4-8.4-18.3-17.6-23.5-29.3c-9.3-20.8-3.5-44.8,15.4-57.9c26.1-18,70.9-15.2,92.5,9.2C320.3,133.2,322.9,150.4,316.9,166.9z M336.6,101.4c2.5,0.4,6.8-6.8,8.3-8.7c3.1-3.9,6.9-7.7,12.2-8c7.1-0.5,7.9,10.5,0.8,11c-3.3,0.2-7.1,7.6-9.3,10.1c-3.7,4.2-8.2,7.5-14.1,6.5C327.5,111,329.6,100.2,336.6,101.4z M372,155.6c-9.9,0.6-20.2-0.2-29.9,2.4c-6.8,1.8-10.5-8.6-3.6-10.4c9.5-2.5,19.2-2.4,29-2.8c1.3-0.9,3.1-1.3,5-0.4c0,0,0,0,0,0c0.5,0.2,0.9,0.3,1.4,0.5c1,0.5,1.7,1.2,2.3,2.2C378.2,150.5,376.3,155.4,372,155.6z"/><path d="M472.5,263.4C472.4,263.4,472.4,263.4,472.5,263.4c-0.2-0.7-0.5-1.4-1-2c-6.8-9.2-13-18.9-20-28c-6.4-8.4-14.5-15.3-20.1-24.3c-6.1-9.8-3.9-22.7-1.6-33.4c2.5-11.9,0.8-24.1,1.6-36.2c0.1-1.5-0.3-2.9-1.1-3.9c-3.9-26-22.3-49.6-40.1-68c-15.9-16.5-35.6-29.1-57-37.2c-43.1-16.4-90.9-14.3-134.9-3c-12.6,3.2-25,7.4-37.1,12.2c-1.1-0.1-2.2,0.3-3.3,1.3c-0.1,0-0.1,0.1-0.2,0.1c-0.2,0.1-0.4,0.2-0.6,0.2c-1.5,0.6-2.4,1.6-2.9,2.8c-8.8,7.3-18,13.9-26.6,21.5c-10.3,9.1-18.1,20.2-24.7,32.2c-13.8,24.8-20.1,53.3-23,81.3c-2.9,27.5,4.3,54.3,15.9,79c13.1,27.9,29.1,54.6,44.6,81.2c19.4,33.1,48.9,71.3,38.2,112.2c-0.7,2.8,0.6,4.8,2.6,5.7c0.4,1.4,1.1,2.9,2,4.1c4.6,6.5,10.2,11.1,17.4,14.4c17.4,8.1,36.1,7.5,54.8,8.6c16.3,1,32.6,2.6,49,1.1c14.4-1.3,30.4-5.7,38.9-18.4c0.6-1,1-2,1-2.9c1.4-0.6,2.6-1.8,3.1-3.6c1.1-3.8-1.1-8.8-2.2-12.4c-1.5-5.1-1.9-9.4-1.5-14.6c0.4-5.8,1.3-12.5,4.6-17.4c3.6-5.3,13.4-6,19.1-6.1c1,0,1.8-0.2,2.4-0.6c12.3,1.1,25.1,1.2,37.4,1c14.3-0.2,24.2-8.9,26.3-23.2c0.9-6.6,0.6-13.4,5.1-18.9c3.2-3.9,6.6-7.5,9.4-11.7c5-7.5,5.6-15.3,0.7-21.2c6.5-4.5,8.9-12.4,4.3-21.1c-2.3-4.4-5.8-7.7-9.4-10.9c-2.9-2.6-4-4.8-3.7-8.1c0.5-0.2,1.1-0.3,1.8-0.5c2.1-0.5,4.5-0.8,6.8-1.2c5.6-0.8,11.3-1.6,16.7-3.4c4.6-1.5,9.5-4.4,11.3-9.2C478.8,274.7,476,268.6,472.5,263.4z M188,458.4c1.8-0.2,3.1-1,3.9-2.1C191.6,457.3,190.6,458.2,188,458.4z M466,277.3c-1.6,1.9-6.2,3.1-9.2,3.8c-7.9,1.6-18.1,1.1-24.9,5.8c-1.3,0.9-2,2.1-2.2,3.3c0,0.1-0.1,0.2-0.1,0.3c-2,8.6,0.5,15.2,6.8,21.1c4.7,4.4,14.1,14.5,2.2,16.4c-4.9,0.8-5.9,6.4-3.7,9.3c0.4,1.2,1.2,2.3,2.7,3.1c3.2,1.6,4.6,3.1,3.2,6.6c-1.5,3.6-4.2,6.6-6.6,9.5c-2.5,2.9-4.9,5.7-7,8.9c-3.4,5.3-3.7,12.1-4.3,18.1c-0.5,5.5-1.9,10.6-6.7,13.8c-3.8,2.5-9.6,2.1-13.9,2c-11.7-0.2-23.6,0-35.2-1.3c-1.7-0.2-3.1,0.3-4.1,1.1c-6.6,0.6-12.8,2.4-18.5,5.9c-6.6,4-9.1,12-10.6,19.1c-1.2,6-2.1,13.3-1,19.4c0.5,3.2,1.5,6.3,2.4,9.4c0.4,1.4,0.8,2.9,1.2,4.3c0.1,0.3,0.1,0.8,0.1,1.1c-0.5,0.3-1,0.8-1.4,1.5c-6.6,9.8-18,13-29.1,14.4c-13.4,1.7-27.1,0.7-40.6-0.2c-13.3-0.9-26.8-0.5-40-2.6c-8.4-1.3-16.4-3.7-23.9-7.6c-2.5-1.3-4.2-3-6.1-5.1c-0.9-0.9-1.7-1.9-2.4-2.9c-0.1-0.2-0.3-0.4-0.4-0.5c1-2.4,0.3-5.7-1.9-7.1c4.7-25.5-4.6-51.5-16.6-73.8c-7.2-13.5-15.7-26.4-23.4-39.6c-8.1-13.8-16.1-27.8-23.9-41.8c-13.7-24.7-28.7-49.9-34.1-78c-5.4-27.7-0.2-57.3,8.1-83.9c5.4-17.2,13.7-34.3,25.3-48.2c10.6-12.7,24.9-21.6,37.4-32.3C205,33.8,251.2,24.9,296,31.9c22.2,3.5,43.3,11.3,62.2,23.5c21,13.6,38,33.5,50.8,54.8c5.1,8.5,9.1,17.8,10.4,27.7c0.1,1,0.5,1.8,0.9,2.5c-0.5,11.7,0.6,23.5-1.8,35c-2.4,11.4-3.7,25,1.6,35.8c4.9,10,13.1,17.6,20.2,25.9c8.2,9.5,14.6,20.4,22,30.5c0.1,0.1,0.1,0.1,0.2,0.2c0.2,0.6,0.4,1.2,0.8,1.8c1.2,1.7,2.6,3.6,3,5.7C466.6,276.8,466.5,276.7,466,277.3z"/><path d="M308.6 120c-21.6-24.4-66.4-27.2-92.5-9.2-19 13.1-24.7 37.1-15.4 57.9 5.2 11.7 14 20.9 23.5 29.3 8.8 7.9 21 17.5 17.3 30.7-.5 1.8-.1 3.3.7 4.4-.2 1.2-.2 2.4.3 3.6-.8 1.2-1.2 2.7-.7 4.5 1.3 4.7 3.7 8.4 6.8 11.2-.2.6-.2 1.3-.1 2.1 1 6.8 5.7 13.2 12.7 14.8 8.4 1.9 13.9-2.1 19.6-7.8 1.9-2 1.9-4.3.8-6.1 5.2-3.7 8.7-9.7 8.4-16.8 0-1.3-.4-2.4-1-3.2 1.7-1.8 2.8-4 2.8-6.8 0-1.3-.4-2.4-1-3.2.2-22.4 18.8-38.2 26.1-58.4C322.9 150.4 320.3 133.2 308.6 120zM266.6 248.5c-5.3-.1-9.7-2.3-12.4-6.2 6.8 1.5 13.5 1.7 20.6-.1 1.1-.3 2.2-.6 3.3-.9.1.3.2.7.3 1C276.9 246.9 271.6 248.6 266.6 248.5zM263.1 187.8c-.3-.8-.5-1.6-.8-2.4-2.6-7.4-5.8-15.5-9.8-22.8 1.6-.7 3.2-1.5 4.7-2.5 1.2 2 2.6 3.9 4.9 5.3 1.7 1.1 3.6 1.5 5.6 1.6-2.9 6.1-4.3 13.2-4.6 19.6C263.1 187 263.1 187.4 263.1 187.8zM299.3 177.7c-9.6 16.1-20.3 30.4-19.5 50.1 0 .3 0 .5.1.8-.7.4-1.4.8-2.2 1.1-2.3 1-4.8 1.7-7.3 2.3-1.5-14.5-2.6-28.9-6.8-42.9 2.1 4.3 10.2 3 10.5-3 .3-7 2.6-15.4 7.9-20.2 1.6-1.5 2-3.2 1.5-4.7 2.2-4.1-.9-10.3-6.1-8-2.7 1.2-7.1 3.8-10.2 2.4-1.5-.7-2.9-5.6-3.7-7-1.8-3.2-6.3-3.2-8.7-.7-1.7 1.7-3.6 3-5.6 4.2-.9.5-1.8.9-2.8 1.2-.7-.9-1.5-1.8-2.2-2.7-3.7-4.1-10.8.8-9 5.7 1.1 2.9 2.6 4.8 4.3 6 2.3 3.4 4.1 7.3 5.8 11 2.5 5.6 5.1 11.4 7.2 17.2 4.7 13.4 5.5 27.7 6.9 41.7-2.4-.4-4.8-1-7.1-1.8 6.6-25.7-24.1-39.8-36.6-57.5-7.2-10.2-10.6-22.4-7.3-34.6 2.3-8.6 8.6-15.3 16-20 13.6-8.6 31.4-9.6 46.9-6.4 14.2 3 29.5 10.9 35.5 24.8C312.7 150.9 306.6 165.5 299.3 177.7zM376.1 147.1c-.6-.9-1.3-1.7-2.3-2.2-.5-.2-.9-.3-1.4-.5 0 0 0 0 0 0-1.9-.8-3.7-.5-5 .4-9.7.4-19.5.3-29 2.8-6.9 1.8-3.2 12.2 3.6 10.4 9.7-2.6 20-1.8 29.9-2.4C376.3 155.4 378.2 150.5 376.1 147.1zM357.1 84.7c-5.3.3-9 4.1-12.2 8-1.6 2-5.8 9.2-8.3 8.7-7-1.2-9.1 9.6-2.1 10.8 5.9 1 10.4-2.3 14.1-6.5 2.2-2.5 6.1-9.9 9.3-10.1C365.1 95.2 364.2 84.2 357.1 84.7zM294.4 47c-5.2 1.5-6.7 8.2-7.9 12.7-1 3.7-1.7 12.3-4.7 14.6-5.6 4.3.5 13.5 6.2 9.1 4.5-3.5 6.1-9.1 7.6-14.4.7-2.7 1.4-5.5 2.1-8.2.3-1 .5-1.9.9-2.8.2-.4.3-.7.4-.9C304.6 54.6 300.9 45.1 294.4 47zM223.7 75.2c-1.7-3.1-4-6.1-5.1-9.5.8-1.5.9-3.4-.4-5.3-.6-.9-1.9-3.9-.7-.7-2.3-6.1-10.6-3.8-10.7 2.2-.2 10.7 10.2 17.7 10.7 28 .3 7.1 11.3 6.2 11-.8C228.1 84 226.1 79.5 223.7 75.2zM184.8 133.7c-2.9-3.9-7-5.2-11.4-6.9-6.2-2.4-11.5-6.5-16.9-10.2-5.8-3.9-13.1 4.3-7.3 8.3 4.7 3.1 9.2 6.5 14.1 9.3 2 1.1 4.1 2.1 6.3 2.9 1.8.7 4.8 1.1 6 2.7C179.9 145.5 189.1 139.4 184.8 133.7zM178.7 193.2c-10.1-4.7-20 1.1-30.2 1.4-7.1.2-6.2 11.2.8 11 7.4-.2 17.4-5.9 24.5-2.6C180.2 206.1 185.1 196.2 178.7 193.2z"/></svg>