<svg xmlns="http://www.w3.org/2000/svg" viewBox="0 0 64 64"><path fill="#f9e3ae" d="M4 21A2 2 0 1 0 4 25 2 2 0 1 0 4 21zM6.786 7l1.26 2.304c.282.516.706.94 1.222 1.222l2.304 1.26-2.304 1.26c-.516.282-.94.706-1.222 1.222l-1.26 2.304-1.26-2.304c-.282-.516-.706-.94-1.222-1.222L2 11.786l2.304-1.26c.516-.282.94-.706 1.222-1.222L6.786 7z"/><path fill="#faefde" d="M16.92,40.326C16.919,40.326,16.919,40.326,16.92,40.326c-0.501,0-2.113-1.33-2.955-4.473 c-0.855-3.19-0.087-5.275,0.307-5.382c0.003,0-0.642-3.797,1.728-3.472c0.883,0.121,1.509,0.55,1.66-0.308 c0.128-0.729,0.023-1.55-0.135-2.795c-0.244-1.914-0.613-4.807-0.215-8.786c0.545-5.447,3.737-8.699,8.569-8.699 c0.369,0,0.727-0.119,1.023-0.341C29.239,4.32,33.919,3,37.789,3h1.706c10.354,0,17.833,5.293,20.898,14.642 c-1.177-0.133-0.784,0.694-1.621,1.499c-0.652,0.626-2.88,1.129-2.104,3.236c1.054,2.86,1.428,4.549,1.54,6.949 c0.029,0.611,3.061-0.466,3.092-0.469c0.412,0.142,1.16,3.832,0.313,6.996c-0.842,3.144-2.454,4.473-2.954,4.473 c-0.698-0.002-1.422,0.496-1.637,1.22C54.15,51.214,46.622,61,37.789,61s-16.361-9.786-19.234-19.454 C18.34,40.823,17.675,40.326,16.92,40.326z"/><path fill="#efd8be" d="M13.965 35.853c-.855-3.19-.087-5.275.307-5.382.003 0-.017-3.547 2.353-3.222.883.121 1.667 10.667 1.489 14.059C18.074 42.063 14.807 38.996 13.965 35.853zM61.477 35.853c.855-3.19.087-5.275-.307-5.382-.003 0-.193-1.515-2.563-1.189-.883.121-1.456 8.634-1.279 12.027C57.368 42.063 60.635 38.996 61.477 35.853z"/><path fill="#cda1a7" d="M16,24c0,0,7,1,10-7c5.014,1.614,7.604,5.614,31,4c2.319-0.16,2.57-2.492,3.789-2.358 C57.616,9.293,49.721,3,39,3h-2c-4.007,0-7.58,1.249-10,3c-0.306,0.222-1.629-0.093-2,0c-4,1-7.182,4.889-8,10 c-0.632,3.95-0.848,6.983-0.596,8.897C16.409,24.928,15.996,23.969,16,24z"/><path fill="#dbb2ba" d="M16.404 24.897c-.035-.266-.059-.56-.076-.869C16.12 24.016 16 24 16 24 15.996 23.969 16.409 24.928 16.404 24.897zM39 3h-2c-4.007 0-7.58 1.249-10 3-.046.033-.039.169.005.376.518 2.418 3.165 3.754 5.461 2.835C34.07 8.568 35.919 8 37.44 8h1.744c8.425 0 14.838 5.118 18.051 12.969 2.097-.298 2.714-1.222 3.89-1.094C57.952 10.526 49.721 3 39 3z"/><path fill="#efd8be" d="M52.975,49c-2.728,0-5.285,1.082-7.212,2.866c-2.299,2.128-5.035,3.517-7.974,3.517 c-2.939,0-5.674-1.39-7.974-3.517C27.888,50.082,25.332,49,22.603,49h-1.425c3.72,6.585,9.773,12,16.611,12S50.68,55.585,54.4,49 H52.975z"/><path fill="#f9e3ae" d="M25.266 1L28.462 9.094 36.782 6.546 32.446 14.091 39.626 19.007 31.024 20.321 31.657 29 25.266 23.094 18.875 29 19.508 20.321 10.906 19.007 18.086 14.091 13.75 6.546 22.071 9.094z"/><path fill="#c5e4fa" d="M24.982,18.261L5.261,37.982c-0.905,0.905-2.273,1.006-3.054,0.225l-0.414-0.414 c-0.781-0.781-0.68-2.148,0.225-3.054l19.721-19.721c0.905-0.905,2.273-1.006,3.054-0.225l0.414,0.414 C25.988,15.988,25.887,17.355,24.982,18.261z"/><path fill="#8b8e98" d="M21.1,22.143L5.261,37.982c-0.905,0.905-2.273,1.006-3.054,0.225l-0.414-0.414 c-0.781-0.781-0.68-2.148,0.225-3.054l15.891-15.891L21.1,22.143z"/><g><path fill="#8d6c9f" d="M63.021,31.168c-0.353-1.722-1.215-2.85-2.431-3.175c-0.378-0.101-0.918-0.14-1.569,0.071 c-0.054-2.36-0.388-4.373-1.021-6.084c-0.25-0.67-0.17-0.91-0.18-0.91c0.29-0.23,1.75-0.03,3.15,0.55 c0.34,0.14,0.74,0.08,1.02-0.16c0.29-0.24,0.42-0.61,0.34-0.98C59.8,8.91,51.21,2,39.36,2h-1.61c-2.98,0-7.07,0.8-10.08,2.35 L26.2,0.63C26.05,0.25,25.68,0,25.27,0c-0.41,0-0.78,0.25-0.93,0.63l-2.86,7.24l-7.44-2.28c-0.39-0.12-0.82,0.01-1.07,0.33 c-0.26,0.32-0.29,0.77-0.09,1.12l3.88,6.75l-6.42,4.39c-0.34,0.23-0.5,0.65-0.41,1.05c0.09,0.4,0.42,0.7,0.83,0.77l3.97,0.61 L1.31,34.03c-1.29,1.3-1.39,3.3-0.22,4.47l0.41,0.41c0.53,0.53,1.26,0.82,2.03,0.82c0.08,0,0.15,0,0.23-0.01 c0.82-0.06,1.6-0.42,2.21-1.03l6.375-6.375c-0.081,1.21,0.049,2.568,0.42,3.951c0.854,3.19,2.648,5.533,4.535,6.046 c3.124,9.842,11.04,19.603,20.452,19.603c9.413,0,17.328-9.761,20.452-19.603c1.887-0.513,3.681-2.855,4.536-6.046 C63.224,34.459,63.324,32.648,63.021,31.168z M13.56,18.4l5.09-3.48c0.43-0.3,0.56-0.88,0.3-1.33l-3.07-5.35l5.9,1.81 c0.5,0.16,1.03-0.1,1.22-0.59l2.27-5.74l0.67,1.69l0.7,1.8l0.89,2.25c0.19,0.49,0.72,0.75,1.22,0.59l5.9-1.81l-3.07,5.35 c-0.26,0.45-0.13,1.03,0.3,1.33l5.09,3.48l-2.05,0.31l-3.93,0.6h-0.01l-0.11,0.02c-0.51,0.08-0.88,0.54-0.84,1.06l0.45,6.16 l-4.54-4.19c-0.19-0.18-0.43-0.27-0.67-0.27c-0.25,0-0.49,0.09-0.68,0.27l-4.53,4.19l0.15-2.1l5.48-5.48 c1.29-1.3,1.39-3.3,0.22-4.47l-0.41-0.41c-0.58-0.58-1.4-0.88-2.26-0.81c-0.82,0.06-1.6,0.42-2.21,1.03l-4.54,4.54L13.56,18.4z M21.117,20.703l-1.82-1.82l3.153-3.153c0.26-0.27,0.6-0.44,0.94-0.46h0.08c0.17,0,0.42,0.04,0.62,0.23l0.41,0.41 c0.38,0.39,0.28,1.14-0.23,1.64L21.117,20.703z M4.55,37.27c-0.26,0.27-0.6,0.44-0.94,0.46c-0.16,0.01-0.47,0-0.7-0.23L2.5,37.09 c-0.38-0.39-0.28-1.14,0.23-1.64L17.2,20.98l0.683-0.683l1.82,1.82L18.27,23.55L4.55,37.27z M60.808,35.748 c-0.816,3.047-2.483,4.669-3.373,4.669h-0.001h-0.001c-0.442,0-0.833,0.291-0.958,0.715c-2.773,9.334-10.095,18.782-18.722,18.782 c-8.627,0-15.948-9.448-18.722-18.782c-0.126-0.424-0.516-0.715-0.958-0.715H18.07h-0.001c-0.89,0-2.557-1.622-3.373-4.669 c-0.711-2.653-0.348-4.712,0.291-5.503c0.035-0.043,0.501-0.785,0.976-1.549l2.086-2.086l-0.17,2.32 c-0.03,0.41,0.19,0.79,0.56,0.97s0.81,0.11,1.11-0.17l5.72-5.27l5.71,5.27c0.19,0.18,0.43,0.27,0.68,0.27 c0.14,0,0.29-0.03,0.43-0.1c0.37-0.18,0.59-0.56,0.56-0.97l-0.56-7.76l2.68-0.41c3.15,1,6.39,1.5,9.69,1.5c0.56,0,1-0.45,1-1 c0-0.55-0.44-1-1-1c-1.5,0-2.98-0.11-4.45-0.33c0.29-0.13,0.52-0.38,0.59-0.7c0.09-0.4-0.07-0.82-0.41-1.05l-6.42-4.39l3.88-6.75 c0.2-0.35,0.17-0.8-0.09-1.12c-0.25-0.32-0.68-0.45-1.07-0.33l-7.44,2.28L28.4,6.22C31.11,4.77,35.02,4,37.75,4h1.61 c10.41,0,17.82,5.51,20.58,15.19c-1.2-0.28-2.65-0.38-3.5,0.43c-0.7,0.68-0.81,1.7-0.31,3.05c0.78,2.12,1.05,4.8,0.83,8.19 c-0.04,0.56,0.38,1.03,0.93,1.07h0.07c0.52,0,0.96-0.41,1-0.94c0.016-0.248,0.022-0.484,0.033-0.725 c0.056-0.023,0.116-0.033,0.168-0.067c0.257-0.166,0.625-0.352,0.911-0.273C60.946,30.159,61.666,32.544,60.808,35.748z"/><path fill="#8d6c9f" d="M51.983 20.262H48.76c-.552 0-1 .447-1 1s.448 1 1 1h3.223c.552 0 1-.447 1-1S52.535 20.262 51.983 20.262zM29 30A2 2 0 1 0 29 34 2 2 0 1 0 29 30zM48 30A2 2 0 1 0 48 34 2 2 0 1 0 48 30zM51.876 11.535l-1.152 1.485c-.338.437-.259 1.064.177 1.403.182.142.398.21.612.21.298 0 .594-.133.791-.387l1.152-1.485c.338-.437.259-1.064-.177-1.403C52.843 11.02 52.215 11.099 51.876 11.535zM46.979 11.69c.129.056.263.082.396.082.387 0 .756-.226.918-.604l.758-1.758c.219-.508-.015-1.096-.522-1.314-.506-.219-1.096.014-1.314.521l-.758 1.758C46.238 10.884 46.472 11.472 46.979 11.69zM43.167 6.271c-.548-.086-1.06.282-1.148.826l-.312 1.91c-.089.545.28 1.059.825 1.148.055.009.109.013.163.013.481 0 .906-.349.986-.839l.312-1.91C44.082 6.875 43.712 6.361 43.167 6.271zM.52 23.877l1.444.79c.156.086.283.213.368.368l.79 1.444C3.298 26.801 3.634 27 4 27s.702-.199.877-.521l.79-1.444c.085-.155.212-.282.368-.368l1.444-.79C7.801 23.702 8 23.365 8 23s-.199-.702-.52-.877l-1.444-.79c-.156-.086-.283-.213-.368-.368l-.79-1.444c-.351-.643-1.404-.643-1.755 0l-.79 1.444c-.085.155-.212.282-.368.368l-1.444.79C.199 22.298 0 22.635 0 23S.199 23.702.52 23.877zM4 22.073C4.235 22.449 4.551 22.765 4.927 23 4.551 23.235 4.235 23.551 4 23.927 3.765 23.551 3.449 23.235 3.073 23 3.449 22.765 3.765 22.449 4 22.073zM1.52 12.662l2.305 1.262c.348.189.632.475.823.823l1.26 2.304c.176.321.512.521.877.521.366 0 .702-.199.877-.521l1.259-2.303c.191-.35.476-.635.825-.825l2.304-1.261c.321-.175.52-.512.52-.877s-.2-.702-.521-.877l-2.304-1.26C9.398 9.457 9.113 9.172 8.923 8.824l-1.26-2.304C7.488 6.199 7.151 6 6.786 6S6.084 6.199 5.908 6.521l-1.26 2.304c-.19.348-.475.633-.824.824l-2.304 1.26C1.2 11.083 1 11.42 1 11.785S1.199 12.487 1.52 12.662zM4.784 11.402c.686-.375 1.245-.935 1.619-1.619l.383-.699.383.7c.375.684.934 1.244 1.619 1.618l.7.383-.699.383c-.684.373-1.244.934-1.62 1.62l-.382.699-.383-.699c-.375-.687-.935-1.246-1.619-1.619l-.7-.384L4.784 11.402z"/></g></svg>