<svg xmlns="http://www.w3.org/2000/svg" viewBox="0 0 48 48"><linearGradient id="DaI9FUrXzrAO9rhy0b2XBa" x1="24.885" x2="6.55" y1="30.142" y2="11.807" gradientUnits="userSpaceOnUse"><stop offset=".335" stop-color="#00838f"/><stop offset=".515" stop-color="#008794"/><stop offset=".715" stop-color="#0092a1"/><stop offset=".924" stop-color="#00a4b7"/><stop offset="1" stop-color="#00acc1"/></linearGradient><path fill="url(#DaI9FUrXzrAO9rhy0b2XBa)" d="M21.477,23.571c-0.324-0.355-0.475-0.835-0.475-1.315v-2.794	c1.024-0.919,1.728-2.183,1.931-3.612C23.108,15.945,23.299,16,23.5,16c0.828,0,1.5-1.395,1.5-2.5c0-0.828-0.672-1.5-1.5-1.5	c-0.176,0-0.343,0-0.5,0c0-1.226,0-2.453,0-3c0-3.314-2.686-6-6-6s-6,2.686-6,6c0,0.547,0,1.774,0,3c-0.157,0-0.324,0-0.5,0	C9.672,12,9,12.672,9,13.5c0,1.105,0.672,2.5,1.5,2.5c0.201,0,0.392-0.055,0.567-0.15c0.203,1.425,0.903,2.685,1.923,3.604v2.802	c0,0.48-0.151,0.96-0.475,1.315C10.418,25.862,4.34,25.352,4,31h26C29.66,25.352,23.573,25.862,21.477,23.571z"/><linearGradient id="DaI9FUrXzrAO9rhy0b2XBb" x1="38.885" x2="20.55" y1="45.142" y2="26.807" gradientUnits="userSpaceOnUse"><stop offset=".335" stop-color="#f57c00"/><stop offset=".477" stop-color="#f67f05"/><stop offset=".636" stop-color="#f78a12"/><stop offset=".801" stop-color="#fa9b28"/><stop offset=".972" stop-color="#feb247"/><stop offset="1" stop-color="#ffb74d"/></linearGradient><path fill="url(#DaI9FUrXzrAO9rhy0b2XBb)" d="M35.477,38.571c-0.324-0.355-0.475-0.835-0.475-1.315v-2.794	c0.987-0.886,1.665-2.096,1.896-3.462H37.5c0.828,0,1.5-1.395,1.5-2.5c0-0.828-0.672-1.5-1.5-1.5c-0.176,0-0.343,0-0.5,0	c0-1.226,0-2.453,0-3c0-3.314-2.686-6-6-6s-6,2.686-6,6c0,0.547,0,1.774,0,3c-0.157,0-0.324,0-0.5,0c-0.828,0-1.5,0.672-1.5,1.5	c0,1.105,0.672,2.5,1.5,2.5h0.602c0.23,1.361,0.905,2.568,1.887,3.454v2.802c0,0.48-0.151,0.96-0.475,1.315	C24.418,40.862,18.34,40.352,18,46h26C43.66,40.352,37.573,40.862,35.477,38.571z"/></svg>