<svg xmlns="http://www.w3.org/2000/svg" viewBox="0 0 48 48"><path fill="#81d4fa" d="M24,42.2c-9.5,0-16.3-4.8-16.3-4.8V23c0-9.2,4.8-17.3,16.3-17.3s16.3,7.9,16.3,17.1v14.6 C40.3,37.4,33.5,42.2,24,42.2z"/><path fill="#1e88e5" d="M7.7,29.8h-1c-1.1,0-1.9-0.9-1.9-1.9V23c0-1.1,0.9-1.9,1.9-1.9h1V29.8z M40.3,21.1h1 c1.1,0,1.9,0.9,1.9,1.9v4.8c0,1.1-0.9,1.9-1.9,1.9h-1V21.1z M7.7,34.6v2.9c0,0,6.9,4.8,16.3,4.8s16.3-4.8,16.3-4.8v-2.9 c0,0-6.9,4.8-16.3,4.8S7.7,34.6,7.7,34.6z"/><path fill="#7e57c2" d="M24,35.5c-8.2,0-13.4-3.4-13.4-8.6V22c0-4.4,3.5-9.6,13.4-9.6s13.4,5.2,13.4,9.6v4.8 C37.4,32.1,32.2,35.5,24,35.5z"/><path fill="#b3e5fc" d="M24,13.4c9.3,0,12.5,4.7,12.5,8.6v4.8c0,4.6-4.8,7.7-12.5,7.7s-12.5-3.1-12.5-7.7V22 C11.5,18.1,14.7,13.4,24,13.4 M24,11.5C13.4,11.5,9.6,17.2,9.6,22v4.8c0,5.8,5.7,9.6,14.4,9.6s14.4-3.8,14.4-9.6V22 C38.4,16.8,33.9,11.5,24,11.5z"/><path fill="#7e57c2" d="M24,35.5c-8.2,0-13.4-3.4-13.4-8.6V22c0-4.4,3.5-9.6,13.4-9.6s13.4,5.2,13.4,9.6v4.8 C37.4,32.1,32.2,35.5,24,35.5z"/><path fill="#b3e5fc" d="M24,13.4c9.3,0,12.5,4.7,12.5,8.6v4.8c0,4.6-4.8,7.7-12.5,7.7s-12.5-3.1-12.5-7.7V22 C11.5,18.1,14.7,13.4,24,13.4 M24,11.5C13.4,11.5,9.6,17.2,9.6,22v4.8c0,5.8,5.7,9.6,14.4,9.6s14.4-3.8,14.4-9.6V22 C38.4,16.8,33.9,11.5,24,11.5z"/><path fill="#7e57c2" d="M36.5,26.9c0,4.6-4.8,7.7-12.5,7.7s-12.5-3.1-12.5-7.7V22c0-3.9,3.2-8.6,12.5-8.6s12.5,4.7,12.5,8.6 V26.9z"/><path fill="#4a148c" d="M36.5,25.9c0,0,0,1.3-0.8,2.1c-0.5,0.5-1.2,0.7-2.1,0.7h-4.1c-0.3-0.6-0.9-1-1.7-1 c-1.1,0-1.9,0.9-1.9,1.9c0,1.1,0.9,1.9,1.9,1.9c0.7,0,1.3-0.4,1.7-1h4.1c1.4,0,2.6-0.4,3.4-1.3c1.4-1.4,1.4-3.4,1.4-3.5L36.5,25.9z"/><path fill="#b388ff" d="M15.4,27.9c-0.6,0-1-0.4-1-1V22c0-3.6,3.7-5.8,9.6-5.8c0.6,0,1,0.4,1,1s-0.4,1-1,1 c-4.6,0-7.6,1.5-7.6,3.8v4.8C16.4,27.4,15.9,27.9,15.4,27.9z"/><path fill="#b3e5fc" d="M24,13.4c9.3,0,12.5,4.7,12.5,8.6v4.8c0,4.6-4.8,7.7-12.5,7.7s-12.5-3.1-12.5-7.7V22 C11.5,18.1,14.7,13.4,24,13.4 M24,11.5C13.4,11.5,9.6,17.2,9.6,22v4.8c0,5.8,5.7,9.6,14.4,9.6s14.4-3.8,14.4-9.6V22 C38.4,16.8,33.9,11.5,24,11.5z"/></svg>