<?xml version="1.0" encoding="utf-8"?>
<svg xmlns="http://www.w3.org/2000/svg" viewBox="0 0 80 80" fill="#ffdd00"><path d="M 21 10 L 21 38 L 9 38 L 9 42.414063 L 40 73.414063 L 71 42.414063 L 71 38 L 59 38 L 59 12 L 57 12 L 57 40 L 69 40 L 69 41.585938 L 40 70.585938 L 11 41.585938 L 11 40 L 23 40 L 23 10 Z M 70 14 C 69.449219 14 69 14.449219 69 15 C 69 15.550781 69.449219 16 70 16 C 70.550781 16 71 15.550781 71 15 C 71 14.449219 70.550781 14 70 14 Z M 18 18 C 17.449219 18 17 18.449219 17 19 C 17 19.550781 17.449219 20 18 20 C 18.550781 20 19 19.550781 19 19 C 19 18.449219 18.550781 18 18 18 Z M 62 18 C 61.449219 18 61 18.449219 61 19 C 61 19.550781 61.449219 20 62 20 C 62.550781 20 63 19.550781 63 19 C 63 18.449219 62.550781 18 62 18 Z M 70 18 C 69.449219 18 69 18.449219 69 19 C 69 19.550781 69.449219 20 70 20 C 70.550781 20 71 19.550781 71 19 C 71 18.449219 70.550781 18 70 18 Z M 18 22 C 17.449219 22 17 22.449219 17 23 C 17 23.550781 17.449219 24 18 24 C 18.550781 24 19 23.550781 19 23 C 19 22.449219 18.550781 22 18 22 Z M 62 22 C 61.449219 22 61 22.449219 61 23 C 61 23.550781 61.449219 24 62 24 C 62.550781 24 63 23.550781 63 23 C 63 22.449219 62.550781 22 62 22 Z M 38.984375 22.699219 L 38.984375 24.820313 C 34.835938 25.203125 32.316406 27.554688 32.316406 31.105469 C 32.316406 34.101563 34.191406 36.160156 37.617188 37.035156 L 38.984375 37.390625 L 38.984375 44.394531 C 36.695313 44.136719 35.21875 42.859375 35.066406 41.03125 L 31.8125 41.03125 C 31.824219 44.597656 34.589844 47.007813 38.984375 47.300781 L 38.984375 49.296875 L 41.089844 49.296875 L 41.089844 47.28125 C 45.59375 46.898438 48.1875 44.546875 48.1875 40.78125 C 48.1875 37.601563 46.375 35.652344 42.519531 34.714844 L 41.089844 34.390625 L 41.089844 27.769531 C 43.117188 28.015625 44.5 29.335938 44.5625 31.027344 L 47.773438 31.027344 C 47.679688 27.601563 45.070313 25.175781 41.089844 24.820313 L 41.089844 22.699219 Z M 10 26 C 9.449219 26 9 26.449219 9 27 C 9 27.550781 9.449219 28 10 28 C 10.550781 28 11 27.550781 11 27 C 11 26.449219 10.550781 26 10 26 Z M 18 26 C 17.449219 26 17 26.449219 17 27 C 17 27.550781 17.449219 28 18 28 C 18.550781 28 19 27.550781 19 27 C 19 26.449219 18.550781 26 18 26 Z M 62 26 C 61.449219 26 61 26.449219 61 27 C 61 27.550781 61.449219 28 62 28 C 62.550781 28 63 27.550781 63 27 C 63 26.449219 62.550781 26 62 26 Z M 70 26 C 69.449219 26 69 26.449219 69 27 C 69 27.550781 69.449219 28 70 28 C 70.550781 28 71 27.550781 71 27 C 71 26.449219 70.550781 26 70 26 Z M 38.984375 27.753906 L 38.984375 33.949219 C 36.773438 33.503906 35.605469 32.410156 35.605469 30.828125 C 35.605469 29.152344 37.019531 27.863281 38.984375 27.753906 Z M 10 30 C 9.449219 30 9 30.449219 9 31 C 9 31.550781 9.449219 32 10 32 C 10.550781 32 11 31.550781 11 31 C 11 30.449219 10.550781 30 10 30 Z M 14 30 C 13.449219 30 13 30.449219 13 31 C 13 31.550781 13.449219 32 14 32 C 14.550781 32 15 31.550781 15 31 C 15 30.449219 14.550781 30 14 30 Z M 18 30 C 17.449219 30 17 30.449219 17 31 C 17 31.550781 17.449219 32 18 32 C 18.550781 32 19 31.550781 19 31 C 19 30.449219 18.550781 30 18 30 Z M 62 30 C 61.449219 30 61 30.449219 61 31 C 61 31.550781 61.449219 32 62 32 C 62.550781 32 63 31.550781 63 31 C 63 30.449219 62.550781 30 62 30 Z M 66 30 C 65.449219 30 65 30.449219 65 31 C 65 31.550781 65.449219 32 66 32 C 66.550781 32 67 31.550781 67 31 C 67 30.449219 66.550781 30 66 30 Z M 70 30 C 69.449219 30 69 30.449219 69 31 C 69 31.550781 69.449219 32 70 32 C 70.550781 32 71 31.550781 71 31 C 71 30.449219 70.550781 30 70 30 Z M 10 34 C 9.449219 34 9 34.449219 9 35 C 9 35.550781 9.449219 36 10 36 C 10.550781 36 11 35.550781 11 35 C 11 34.449219 10.550781 34 10 34 Z M 14 34 C 13.449219 34 13 34.449219 13 35 C 13 35.550781 13.449219 36 14 36 C 14.550781 36 15 35.550781 15 35 C 15 34.449219 14.550781 34 14 34 Z M 18 34 C 17.449219 34 17 34.449219 17 35 C 17 35.550781 17.449219 36 18 36 C 18.550781 36 19 35.550781 19 35 C 19 34.449219 18.550781 34 18 34 Z M 62 34 C 61.449219 34 61 34.449219 61 35 C 61 35.550781 61.449219 36 62 36 C 62.550781 36 63 35.550781 63 35 C 63 34.449219 62.550781 34 62 34 Z M 66 34 C 65.449219 34 65 34.449219 65 35 C 65 35.550781 65.449219 36 66 36 C 66.550781 36 67 35.550781 67 35 C 67 34.449219 66.550781 34 66 34 Z M 70 34 C 69.449219 34 69 34.449219 69 35 C 69 35.550781 69.449219 36 70 36 C 70.550781 36 71 35.550781 71 35 C 71 34.449219 70.550781 34 70 34 Z M 41.09375 37.789063 C 43.703125 38.3125 44.917969 39.371094 44.917969 41.140625 C 44.917969 43.089844 43.519531 44.289063 41.09375 44.425781 Z" fill="#ffdd00"/></svg>
