<svg width="24" height="24" viewBox="0 0 24 24" fill="none" xmlns="http://www.w3.org/2000/svg">
<path d="M23 7V1H17" stroke="#D6002F" stroke-linecap="round" stroke-linejoin="round"/>
<path d="M16 8L23 1" stroke="#D6002F" stroke-linecap="round" stroke-linejoin="round"/>
<path d="M22 16.9201V19.9201C22.0011 20.1986 21.9441 20.4743 21.8325 20.7294C21.7209 20.9846 21.5573 21.2137 21.3521 21.402C21.1469 21.5902 20.9046 21.7336 20.6408 21.8228C20.3769 21.912 20.0974 21.9452 19.82 21.9201C16.7428 21.5857 13.787 20.5342 11.19 18.8501C8.77383 17.3148 6.72534 15.2663 5.19 12.8501C3.49998 10.2413 2.44824 7.27109 2.12 4.1801C2.09501 3.90356 2.12788 3.62486 2.2165 3.36172C2.30513 3.09859 2.44757 2.85679 2.63477 2.65172C2.82196 2.44665 3.04981 2.28281 3.30379 2.17062C3.55778 2.05843 3.83234 2.00036 4.11 2.0001H7.11C7.59531 1.99532 8.06579 2.16718 8.43376 2.48363C8.80173 2.80008 9.04208 3.23954 9.11 3.7201C9.23662 4.68016 9.47145 5.62282 9.81 6.5301C9.94455 6.88802 9.97366 7.27701 9.89391 7.65098C9.81415 8.02494 9.62886 8.36821 9.36 8.6401L8.09 9.9101C9.51356 12.4136 11.5865 14.4865 14.09 15.9101L15.36 14.6401C15.6319 14.3712 15.9752 14.1859 16.3491 14.1062C16.7231 14.0264 17.1121 14.0556 17.47 14.1901C18.3773 14.5286 19.3199 14.7635 20.28 14.8901C20.7658 14.9586 21.2094 15.2033 21.5265 15.5776C21.8437 15.9519 22.0122 16.4297 22 16.9201Z" stroke="#D6002F" stroke-linecap="round" stroke-linejoin="round"/>
</svg>
