<svg width="300" height="263" viewBox="0 0 300 263" fill="none" xmlns="http://www.w3.org/2000/svg">
<path d="M225 131.5H222V134.5H225V131.5ZM56.25 131.5H53.25V134.5H56.25V131.5ZM271.875 128.5H225V134.5H271.875V128.5ZM228 131.5V94H222V131.5H228ZM228 94C228 75.1184 243.094 59.5 262.5 59.5V53.5C239.719 53.5 222 71.866 222 94H228ZM262.5 59.5H267.188V53.5H262.5V59.5ZM267.188 59.5C276.379 59.5 284.25 52.3789 284.25 42.4375H278.25C278.25 48.9024 273.23 53.5 267.188 53.5V59.5ZM284.25 42.4375V14.3125H278.25V42.4375H284.25ZM284.25 14.3125C284.25 5.03846 276.462 -2.75 267.188 -2.75V3.25C273.148 3.25 278.25 8.35217 278.25 14.3125H284.25ZM267.188 -2.75H262.5V3.25H267.188V-2.75ZM262.5 -2.75C208.683 -2.75 165.75 40.7929 165.75 94H171.75C171.75 44.0821 212.021 3.25 262.5 3.25V-2.75ZM165.75 94V234.625H171.75V94H165.75ZM165.75 234.625C165.75 252.102 179.398 265.75 196.875 265.75V259.75C182.712 259.75 171.75 248.788 171.75 234.625H165.75ZM196.875 265.75H271.875V259.75H196.875V265.75ZM271.875 265.75C288.725 265.75 303 252.143 303 234.625H297C297 248.748 285.493 259.75 271.875 259.75V265.75ZM303 234.625V159.625H297V234.625H303ZM303 159.625C303 142.734 288.766 128.5 271.875 128.5V134.5C285.453 134.5 297 146.047 297 159.625H303ZM103.125 128.5H56.25V134.5H103.125V128.5ZM59.25 131.5V94H53.25V131.5H59.25ZM59.25 94C59.25 75.1184 74.3436 59.5 93.75 59.5V53.5C70.9689 53.5 53.25 71.866 53.25 94H59.25ZM93.75 59.5H98.4375V53.5H93.75V59.5ZM98.4375 59.5C107.629 59.5 115.5 52.3789 115.5 42.4375H109.5C109.5 48.9024 104.48 53.5 98.4375 53.5V59.5ZM115.5 42.4375V14.3125H109.5V42.4375H115.5ZM115.5 14.3125C115.5 5.03846 107.712 -2.75 98.4375 -2.75V3.25C104.398 3.25 109.5 8.35217 109.5 14.3125H115.5ZM98.4375 -2.75H93.75V3.25H98.4375V-2.75ZM93.75 -2.75C39.9325 -2.75 -3 40.7929 -3 94H3C3 44.0821 43.2706 3.25 93.75 3.25V-2.75ZM-3 94V234.625H3V94H-3ZM-3 234.625C-3 252.102 10.6478 265.75 28.125 265.75V259.75C13.9615 259.75 3 248.788 3 234.625H-3ZM28.125 265.75H103.125V259.75H28.125V265.75ZM103.125 265.75C119.975 265.75 134.25 252.143 134.25 234.625H128.25C128.25 248.748 116.743 259.75 103.125 259.75V265.75ZM134.25 234.625V159.625H128.25V234.625H134.25ZM134.25 159.625C134.25 142.734 120.016 128.5 103.125 128.5V134.5C116.703 134.5 128.25 146.047 128.25 159.625H134.25Z" />
</svg>