<svg width="148" height="39" viewBox="0 0 148 39" fill="none" xmlns="http://www.w3.org/2000/svg">
<g filter="url(#filter0_d_32_1264)">
<path d="M15.4523 6.59033L18.2115 0H23.4484L26.9037 20.1401H21.6392L19.8853 8.54779L16.3836 15.9926H15.4523H14.5201L11.0185 8.54779L9.26452 20.1401H4L7.45537 0H12.6923L15.4523 6.59033Z" fill="white"/>
<path d="M39.1974 6.43795H44.1103V20.1401H39.1974V18.6179C38.1534 19.9181 36.7404 20.568 34.9586 20.5674C34.0034 20.5779 33.0565 20.3916 32.1781 20.0203C31.3424 19.6624 30.5892 19.1397 29.9647 18.484C29.3258 17.8117 28.8261 17.0222 28.4939 16.16C28.1352 15.2308 27.9564 14.2431 27.9668 13.2485C27.9631 12.2946 28.1385 11.3482 28.4841 10.4577C28.8061 9.60485 29.2896 8.8206 29.9086 8.14698C30.5238 7.48576 31.2675 6.95421 32.0953 6.58419C32.978 6.19421 33.9358 5.99854 34.9025 6.0107C36.6303 6.0107 38.0614 6.60709 39.1956 7.79989L39.1974 6.43795ZM33.0426 13.2485C33.0349 14.0847 33.3594 14.8905 33.9463 15.4923C34.2294 15.7804 34.5694 16.0077 34.9452 16.16C35.3432 16.3225 35.7701 16.4043 36.2006 16.4005C36.6223 16.4024 37.04 16.3207 37.4292 16.16C37.8046 16.0075 38.1443 15.7802 38.4273 15.4923C38.7089 15.2043 38.9373 14.8698 39.1022 14.5039C39.2742 14.1263 39.362 13.7164 39.3595 13.3023C39.361 12.8836 39.2733 12.4694 39.1022 12.0866C38.9392 11.7156 38.7107 11.3764 38.4273 11.0849C38.1441 10.7973 37.8045 10.5701 37.4292 10.4172C37.04 10.2566 36.6223 10.1748 36.2006 10.1767C35.7701 10.1729 35.3432 10.2547 34.9452 10.4172C34.5696 10.5698 34.2296 10.7971 33.9463 11.0849C33.6688 11.3684 33.4447 11.6986 33.2847 12.0601C33.1213 12.4353 33.0388 12.84 33.0426 13.2485" fill="white"/>
<path d="M56.947 10.8717C56.1012 10.302 55.2465 10.0172 54.3829 10.0172C53.9349 10.0136 53.4903 10.0949 53.0732 10.2568C52.6751 10.4121 52.312 10.6439 52.0048 10.9386C51.6986 11.2344 51.4563 11.5887 51.2926 11.9799C51.116 12.4078 51.0287 12.8666 51.0361 13.3286C51.0303 13.7817 51.1176 14.2313 51.2926 14.6501C51.4559 15.0392 51.6942 15.3932 51.9941 15.6922C52.2984 15.9904 52.6623 16.2223 53.0625 16.3732C53.4843 16.535 53.9332 16.6166 54.3856 16.6137C55.3026 16.6137 56.1573 16.3021 56.9497 15.679V19.7921C55.7442 20.3084 54.6013 20.5665 53.521 20.5665C52.5396 20.5712 51.5654 20.3993 50.6462 20.059C49.7536 19.7346 48.9349 19.2382 48.2376 18.5986C47.5402 17.9589 46.9781 17.1888 46.5836 16.3327C46.1591 15.4062 45.9463 14.3986 45.9604 13.3815C45.9483 12.3587 46.1517 11.3446 46.5578 10.4039C46.935 9.53011 47.4857 8.74015 48.1773 8.08087C48.8812 7.41748 49.7118 6.89967 50.6204 6.55772C51.5891 6.18862 52.6193 6.00304 53.6573 6.01065C54.7994 6.00021 55.9279 6.25613 56.9515 6.75769L56.947 10.8717Z" fill="white"/>
<path d="M59.1844 6.43793H64.0706V8.68081C64.5457 7.90867 65.2036 7.26256 65.9874 6.79823C66.7454 6.36246 67.6289 6.14428 68.638 6.14369H69.0564C69.2331 6.1464 69.4091 6.16438 69.5826 6.19743V10.818C68.9287 10.4959 68.2073 10.3311 67.477 10.337C66.3427 10.337 65.4924 10.6709 64.9262 11.3386C64.3599 12.0064 64.0762 12.9813 64.075 14.2633V20.1401H59.1844V6.43793Z" fill="white"/>
<path d="M71.0223 13.1692C71.0157 12.1869 71.2285 11.2152 71.6455 10.3238C72.0549 9.44851 72.643 8.66657 73.3727 8.02715C74.1454 7.35677 75.0385 6.83592 76.0055 6.49166C77.0739 6.10852 78.2033 5.91844 79.3398 5.9305C80.4658 5.92028 81.585 6.10543 82.6464 6.47757C83.6154 6.81657 84.5112 7.33298 85.2872 7.99984C86.0285 8.64273 86.6223 9.4351 87.0287 10.3238C87.4513 11.2604 87.664 12.2765 87.6519 13.3022C87.6643 14.3291 87.4479 15.346 87.018 16.2807C86.6053 17.1657 86.0125 17.9569 85.2765 18.6046C84.4995 19.2771 83.5952 19.7901 82.6162 20.1137C81.5341 20.4772 80.3979 20.6577 79.2552 20.6475C78.1342 20.6586 77.0197 20.478 75.9609 20.1137C74.9983 19.783 74.1126 19.2641 73.3567 18.5879C72.6258 17.9259 72.0422 17.1207 71.6428 16.2234C71.2183 15.2594 71.0059 14.2171 71.0196 13.1657L71.0223 13.1692ZM76.1755 13.2185C76.1699 13.6545 76.2573 14.0868 76.4319 14.4871C76.5944 14.8583 76.823 15.1975 77.1068 15.4887C77.3899 15.7768 77.73 16.0041 78.1058 16.1565C78.8925 16.4771 79.7754 16.4771 80.5622 16.1565C80.9377 16.0037 81.2777 15.7764 81.5611 15.4887C81.8446 15.1973 82.0732 14.8581 82.236 14.4871C82.4089 14.0955 82.4962 13.6723 82.4924 13.245C82.4943 12.8267 82.4069 12.4127 82.236 12.0301C82.0732 11.6592 81.8446 11.3199 81.5611 11.0285C81.279 10.743 80.9413 10.5171 80.5684 10.3643C79.7817 10.0436 78.8987 10.0436 78.112 10.3643C77.7364 10.5169 77.3964 10.7442 77.113 11.032C76.8314 11.32 76.603 11.6545 76.4382 12.0205C76.2664 12.3981 76.1789 12.8079 76.1817 13.2221" fill="white"/>
<path d="M94.3356 26.978H89.4494V6.43792H94.3356V7.96019C95.3796 6.66109 96.8015 6.01125 98.6012 6.01066C99.5544 6.00309 100.498 6.19869 101.368 6.58416C102.206 6.95629 102.962 7.48722 103.594 8.14695C104.233 8.81965 104.732 9.609 105.066 10.4709C105.421 11.3825 105.599 12.3519 105.592 13.3287C105.601 14.2973 105.422 15.2586 105.066 16.1609C104.73 17.0101 104.235 17.7892 103.607 18.4575C102.975 19.1302 102.208 19.6653 101.356 20.0285C100.503 20.3918 99.583 20.5753 98.6546 20.5674C96.9261 20.5674 95.4862 19.9801 94.3347 18.8055L94.3356 26.978ZM100.49 13.3287C100.492 12.913 100.415 12.5008 100.262 12.1138C100.113 11.7383 99.8882 11.3973 99.6001 11.1122C99.3082 10.8252 98.9649 10.5943 98.5878 10.4312C98.1978 10.2657 97.7783 10.1791 97.3539 10.1767C96.9296 10.1743 96.509 10.256 96.1171 10.4171C95.7471 10.5727 95.4123 10.8001 95.1324 11.0858C94.8486 11.3766 94.62 11.7156 94.4576 12.0865C94.2863 12.4693 94.199 12.8836 94.2011 13.3022C94.1979 13.7149 94.2803 14.1239 94.4433 14.5038C94.6 14.8705 94.8299 15.2022 95.1191 15.479C95.4134 15.7598 95.7563 15.986 96.1314 16.1468C96.518 16.3159 96.9364 16.4024 97.3591 16.4005C97.7765 16.4032 98.19 16.3217 98.5744 16.1609C98.9445 16.0053 99.2793 15.7779 99.5591 15.4922C99.8404 15.2041 100.069 14.8696 100.234 14.5038C100.404 14.1349 100.491 13.7341 100.49 13.3287" fill="#FFDD00"/>
<path d="M118.598 6.43795H123.512V20.1401H118.598V18.6179C117.555 19.9181 116.142 20.568 114.36 20.5674C113.405 20.5779 112.458 20.3916 111.579 20.0203C110.744 19.6624 109.991 19.1397 109.366 18.484C108.727 17.8118 108.227 17.0223 107.894 16.16C107.536 15.2307 107.358 14.2431 107.368 13.2485C107.364 12.2949 107.537 11.3487 107.881 10.4577C108.205 9.6044 108.691 8.82013 109.312 8.14698C109.927 7.48576 110.671 6.95421 111.498 6.58419C112.381 6.19421 113.339 5.99854 114.306 6.0107C116.034 6.0107 117.464 6.60709 118.598 7.79989V6.43795ZM112.442 13.2485C112.435 14.0847 112.76 14.8903 113.347 15.4923C113.63 15.7804 113.97 16.0077 114.346 16.16C114.744 16.3226 115.171 16.4044 115.601 16.4005C116.023 16.4026 116.44 16.3208 116.829 16.16C117.204 16.0072 117.544 15.78 117.828 15.4923C118.109 15.2041 118.338 14.8696 118.503 14.5039C118.676 14.1266 118.765 13.7167 118.764 13.3023C118.765 12.8837 118.678 12.4695 118.507 12.0866C118.344 11.7158 118.115 11.3767 117.832 11.0849C117.549 10.7975 117.209 10.5703 116.833 10.4172C116.445 10.2564 116.027 10.1746 115.606 10.1767C115.175 10.1728 114.748 10.2546 114.35 10.4172C113.975 10.5698 113.635 10.7971 113.351 11.0849C113.073 11.3682 112.849 11.6985 112.69 12.0601C112.526 12.4351 112.443 12.8399 112.447 13.2485" fill="#FFDD00"/>
<path d="M132.123 18.2707L125.428 6.43791H131.097L134.795 13.4625L138.386 6.43791H144L132.879 26.978H127.398L132.123 18.2707Z" fill="#FFDD00"/>
<path d="M117.442 25.4892C117.442 25.0739 117.318 24.668 117.084 24.3229C116.851 23.9778 116.519 23.7089 116.131 23.5504C115.743 23.3918 115.317 23.3507 114.905 23.4322C114.494 23.5137 114.116 23.7142 113.82 24.0083L113.812 24.0163L113.798 24.0312L113.779 24.0524L113.752 24.0788L113.72 24.1105C113.707 24.1229 113.694 24.1343 113.682 24.1475L113.637 24.1889C113.62 24.2048 113.602 24.2189 113.586 24.2356C113.57 24.2524 113.547 24.2682 113.529 24.2858C113.512 24.3034 113.486 24.3202 113.466 24.3404L113.458 24.3466C113.426 24.3678 113.4 24.3951 113.369 24.418C113.338 24.4409 113.304 24.4691 113.271 24.4937C113.238 24.5184 113.202 24.5457 113.167 24.5713C113.132 24.5968 113.093 24.6241 113.057 24.6514C113.02 24.6787 112.979 24.7043 112.941 24.7325C112.903 24.7607 112.859 24.7862 112.819 24.8153C112.779 24.8443 112.73 24.869 112.691 24.899C112.651 24.9289 112.602 24.9527 112.557 24.9827C112.513 25.0126 112.463 25.0364 112.418 25.0708C112.368 25.0977 112.32 25.1271 112.273 25.1588C112.222 25.187 112.17 25.2099 112.123 25.2469C112.075 25.2839 112.028 25.298 111.981 25.3227C111.934 25.3474 111.866 25.3808 111.808 25.4108C111.75 25.4407 111.689 25.4681 111.63 25.4989C111.568 25.525 111.506 25.5544 111.447 25.587C111.382 25.6113 111.319 25.6392 111.257 25.6707C111.191 25.6944 111.126 25.7215 111.062 25.7517C110.994 25.7764 110.927 25.8011 110.862 25.8319C110.792 25.8534 110.723 25.8789 110.655 25.9085C110.513 25.959 110.37 26.0069 110.226 26.0521L110.149 26.0759C109.993 26.1241 109.836 26.1693 109.678 26.2116C109.595 26.2271 109.514 26.2477 109.434 26.2732C109.35 26.2873 109.266 26.3064 109.185 26.3305C109.099 26.3427 109.014 26.3601 108.93 26.3825C108.842 26.3928 108.755 26.4087 108.669 26.43C108.579 26.4379 108.49 26.4517 108.402 26.4714C108.311 26.4776 108.22 26.4897 108.13 26.5076C108.038 26.5117 107.945 26.5217 107.853 26.5375C107.795 26.5375 107.736 26.5472 107.675 26.5551C107.667 26.5551 107.66 26.5551 107.653 26.5551C107.564 26.5585 107.474 26.5676 107.386 26.5824C107.366 26.5824 107.348 26.5763 107.327 26.5763C107.247 26.5796 107.166 26.5878 107.087 26.6009C107.055 26.6009 107.025 26.5913 106.992 26.5913C106.92 26.5913 106.853 26.6054 106.783 26.6115C106.738 26.6115 106.694 26.5983 106.649 26.5983C106.589 26.5983 106.533 26.6115 106.471 26.6159C106.408 26.6203 106.356 26.5983 106.293 26.5983C106.246 26.5983 106.204 26.6089 106.158 26.6115C106.089 26.6054 106.021 26.5913 105.95 26.5913C105.917 26.5913 105.887 26.5992 105.855 26.6009C105.775 26.5878 105.695 26.5796 105.614 26.5763C105.595 26.5763 105.576 26.5816 105.556 26.5824C105.468 26.5677 105.379 26.5586 105.289 26.5551C105.281 26.5551 105.274 26.5551 105.267 26.5551C105.208 26.5472 105.15 26.541 105.089 26.5375C104.997 26.5216 104.905 26.5116 104.812 26.5076C104.724 26.4898 104.635 26.4778 104.545 26.4714C104.457 26.4518 104.368 26.4379 104.278 26.43C104.192 26.4087 104.106 26.3928 104.018 26.3825C103.934 26.3603 103.849 26.3429 103.763 26.3305C103.681 26.3064 103.598 26.2873 103.513 26.2732C103.433 26.2477 103.352 26.2271 103.27 26.2116C103.192 26.1851 103.112 26.1631 103.031 26.1455C102.955 26.1178 102.877 26.0946 102.798 26.0759C102.773 26.0671 102.747 26.0601 102.721 26.0521C102.65 26.0249 102.577 26.0014 102.503 25.9816C102.435 25.9505 102.364 25.9232 102.292 25.8997C102.226 25.8701 102.157 25.8445 102.087 25.8231C102.021 25.7922 101.954 25.7676 101.886 25.7429C101.822 25.7127 101.757 25.6856 101.691 25.6619C101.629 25.6304 101.566 25.6025 101.502 25.5782C101.442 25.5458 101.381 25.5164 101.318 25.4901C101.259 25.4601 101.202 25.4275 101.14 25.402C101.079 25.3764 101.028 25.3386 100.969 25.3139C100.909 25.2892 100.88 25.2593 100.827 25.2381C100.774 25.217 100.726 25.1826 100.677 25.15C100.627 25.1174 100.579 25.0928 100.531 25.0619C100.483 25.0311 100.442 25.0056 100.392 24.9738C100.341 24.9421 100.303 24.9175 100.258 24.8902C100.214 24.8628 100.169 24.8329 100.13 24.8065C100.091 24.78 100.051 24.7492 100.008 24.7237C99.9651 24.6981 99.9322 24.6673 99.8921 24.6426C99.8521 24.6179 99.8209 24.5871 99.7817 24.5624C99.7426 24.5378 99.7149 24.5087 99.6776 24.4849C99.6402 24.4611 99.6143 24.4321 99.5796 24.4092C99.5449 24.3863 99.5226 24.3589 99.4906 24.3378L99.4826 24.3316C99.463 24.3114 99.4398 24.2955 99.4194 24.277C99.3989 24.2585 99.3811 24.2444 99.3633 24.2268C99.3455 24.2092 99.3285 24.196 99.3116 24.1801L99.2671 24.1387C99.2546 24.1255 99.2422 24.114 99.2288 24.1017L99.1968 24.07C99.1879 24.0612 99.1799 24.0515 99.1709 24.0436L99.1505 24.0224L99.1371 24.0075L99.13 23.9995C98.9347 23.7982 98.7007 23.6375 98.4419 23.5268C98.183 23.416 97.9044 23.3575 97.6224 23.3546C97.3404 23.3516 97.0606 23.4044 96.7995 23.5098C96.5383 23.6151 96.301 23.771 96.1015 23.9682C95.9019 24.1654 95.7442 24.4 95.6374 24.6582C95.5306 24.9165 95.4769 25.1933 95.4795 25.4723C95.4821 25.7514 95.541 26.0271 95.6526 26.2833C95.7642 26.5396 95.9264 26.7713 96.1296 26.9648L96.1358 26.9718L96.1501 26.985L96.1714 27.0071C96.1812 27.0168 96.191 27.0264 96.2017 27.0353C96.2124 27.0441 96.2266 27.0599 96.2391 27.0714C96.2516 27.0828 96.2685 27.0996 96.2836 27.1137C96.2987 27.1278 96.3192 27.1463 96.337 27.163C96.3548 27.1797 96.3771 27.1991 96.3976 27.2176C96.4181 27.2361 96.443 27.2573 96.4652 27.2775C96.4875 27.2978 96.5169 27.3216 96.5418 27.3436C96.5667 27.3656 96.5979 27.3903 96.6255 27.4149C96.7227 27.5132 96.8295 27.6017 96.9442 27.6792C96.9763 27.703 97.0048 27.7312 97.0333 27.7532C97.0618 27.7752 97.1 27.8087 97.1357 27.8325C97.1713 27.8563 97.2069 27.8898 97.2461 27.9153C97.2852 27.9409 97.3226 27.9743 97.3645 28.0034C97.4063 28.0325 97.4464 28.0651 97.4909 28.0915C97.5354 28.1179 97.5799 28.1558 97.6244 28.184C97.669 28.2122 97.7135 28.2501 97.7669 28.28C97.8203 28.31 97.8657 28.3461 97.9165 28.3778C97.9672 28.4095 98.0206 28.4456 98.075 28.4774C98.1293 28.5091 98.1845 28.5461 98.2414 28.5795C98.2984 28.613 98.3563 28.6491 98.4195 28.6826C98.4827 28.7161 98.5406 28.7531 98.5976 28.7874C98.7148 28.8674 98.8397 28.9356 98.9706 28.9909C99.0337 29.0276 99.0988 29.0608 99.1656 29.0905C99.2311 29.1276 99.2985 29.1612 99.3677 29.1909C99.4359 29.2286 99.5064 29.2622 99.5787 29.2913C99.6495 29.3286 99.7223 29.3618 99.7969 29.3909C99.8705 29.4283 99.9463 29.4612 100.024 29.4896C100.1 29.5271 100.179 29.5601 100.26 29.5882C100.341 29.6272 100.426 29.6605 100.512 29.6878C100.594 29.7249 100.678 29.7567 100.764 29.7829C100.938 29.8479 101.114 29.9093 101.292 29.967C101.427 30.0258 101.569 30.0698 101.714 30.0983C101.805 30.131 101.898 30.1575 101.993 30.1776C102.088 30.2092 102.184 30.2342 102.282 30.2525C102.379 30.2833 102.478 30.3075 102.579 30.3247C102.679 30.3545 102.781 30.3772 102.884 30.3925C102.987 30.4209 103.092 30.4421 103.198 30.456C103.526 30.5187 103.857 30.5728 104.188 30.618C104.302 30.6415 104.418 30.6559 104.535 30.6612C104.679 30.6917 104.827 30.7071 104.974 30.707H104.996C105.096 30.7242 105.196 30.7342 105.296 30.737C105.316 30.737 105.335 30.7317 105.354 30.7308C105.443 30.7455 105.532 30.7547 105.621 30.7581C105.654 30.7581 105.685 30.7502 105.718 30.7484C105.797 30.7608 105.877 30.7688 105.957 30.7722C106.003 30.7722 106.046 30.7616 106.092 30.759C106.161 30.7696 106.23 30.7767 106.3 30.7801C106.359 30.7801 106.416 30.7669 106.478 30.7625C106.54 30.7581 106.592 30.7801 106.656 30.7801C106.726 30.7767 106.795 30.7696 106.864 30.759C106.91 30.759 106.953 30.7722 106.999 30.7722C107.079 30.7687 107.16 30.7608 107.239 30.7484C107.271 30.7484 107.301 30.7581 107.334 30.7581C107.424 30.7547 107.513 30.7456 107.601 30.7308C107.621 30.7308 107.64 30.737 107.66 30.737C107.761 30.7342 107.861 30.7241 107.959 30.707H107.982C108.129 30.7071 108.276 30.6918 108.421 30.6612C108.537 30.6559 108.653 30.6415 108.768 30.618C108.991 30.5874 109.214 30.553 109.436 30.515C109.545 30.5035 109.653 30.4837 109.759 30.456C109.865 30.442 109.969 30.4208 110.072 30.3925C110.175 30.3772 110.278 30.3545 110.378 30.3247C110.478 30.3074 110.577 30.2832 110.674 30.2525C110.772 30.2344 110.868 30.2093 110.963 30.1776C111.058 30.1576 111.151 30.1311 111.243 30.0983C111.388 30.0697 111.529 30.0256 111.665 29.967C111.756 29.9436 111.845 29.9141 111.932 29.8789C112.021 29.8534 112.107 29.8222 112.192 29.7856C112.277 29.7583 112.361 29.7257 112.442 29.6878C112.526 29.6613 112.607 29.6292 112.686 29.5917C112.766 29.5634 112.845 29.5305 112.921 29.4931C112.999 29.4647 113.075 29.4318 113.148 29.3944C113.223 29.3654 113.296 29.3321 113.367 29.2949C113.439 29.2655 113.509 29.232 113.577 29.1944C113.647 29.1647 113.715 29.1312 113.78 29.094C113.847 29.0644 113.912 29.0311 113.974 28.9945C114.105 28.9391 114.23 28.8709 114.348 28.791C114.409 28.7566 114.472 28.7258 114.526 28.6861C114.579 28.6465 114.644 28.6218 114.704 28.5831C114.763 28.5443 114.818 28.5188 114.87 28.4809C114.923 28.443 114.978 28.4175 115.029 28.3813C115.079 28.3452 115.13 28.3188 115.178 28.2835C115.226 28.2483 115.274 28.2219 115.321 28.1875C115.367 28.1532 115.41 28.1276 115.455 28.095C115.501 28.0624 115.544 28.0369 115.582 28.0069C115.619 27.977 115.66 27.9497 115.699 27.9188C115.738 27.888 115.773 27.8633 115.809 27.836C115.846 27.8087 115.877 27.7832 115.912 27.7567C115.947 27.7303 115.973 27.7065 116.006 27.6827C116.121 27.605 116.228 27.5165 116.325 27.4185C116.352 27.3938 116.382 27.3735 116.409 27.3471C116.435 27.3207 116.46 27.3057 116.484 27.281C116.508 27.2564 116.531 27.2423 116.553 27.2211C116.575 27.2 116.594 27.1859 116.613 27.1665C116.633 27.1471 116.649 27.1348 116.666 27.1172L116.711 27.0749L116.749 27.0388L116.778 27.0106L116.8 26.9886L116.814 26.9753L116.821 26.9692C117.019 26.7745 117.175 26.543 117.282 26.2881C117.389 26.0332 117.444 25.7599 117.444 25.4839" fill="#FFDD00"/>
</g>
<defs>
<filter id="filter0_d_32_1264" x="0" y="0" width="148" height="38.7801" filterUnits="userSpaceOnUse" color-interpolation-filters="sRGB">
<feFlood flood-opacity="0" result="BackgroundImageFix"/>
<feColorMatrix in="SourceAlpha" type="matrix" values="0 0 0 0 0 0 0 0 0 0 0 0 0 0 0 0 0 0 127 0" result="hardAlpha"/>
<feOffset dy="4"/>
<feGaussianBlur stdDeviation="2"/>
<feComposite in2="hardAlpha" operator="out"/>
<feColorMatrix type="matrix" values="0 0 0 0 0 0 0 0 0 0 0 0 0 0 0 0 0 0 0.25 0"/>
<feBlend mode="normal" in2="BackgroundImageFix" result="effect1_dropShadow_32_1264"/>
<feBlend mode="normal" in="SourceGraphic" in2="effect1_dropShadow_32_1264" result="shape"/>
</filter>
</defs>
</svg>
