<svg width="25" height="25" viewBox="0 0 25 25" fill="none" xmlns="http://www.w3.org/2000/svg">
<path d="M16.6667 8.33325C18.3243 8.33325 19.914 8.99173 21.0861 10.1638C22.2582 11.3359 22.9167 12.9256 22.9167 14.5833V21.8749H18.75V14.5833C18.75 14.0307 18.5305 13.5008 18.1398 13.1101C17.7491 12.7194 17.2192 12.4999 16.6667 12.4999C16.1142 12.4999 15.5843 12.7194 15.1935 13.1101C14.8028 13.5008 14.5834 14.0307 14.5834 14.5833V21.8749H10.4167V14.5833C10.4167 12.9256 11.0752 11.3359 12.2473 10.1638C13.4194 8.99173 15.0091 8.33325 16.6667 8.33325V8.33325Z"  stroke-linecap="round" stroke-linejoin="round"/>
<path d="M6.24998 9.375H2.08331V21.875H6.24998V9.375Z"  stroke-linecap="round" stroke-linejoin="round"/>
<path d="M4.16665 6.24992C5.31724 6.24992 6.24998 5.31718 6.24998 4.16658C6.24998 3.01599 5.31724 2.08325 4.16665 2.08325C3.01605 2.08325 2.08331 3.01599 2.08331 4.16658C2.08331 5.31718 3.01605 6.24992 4.16665 6.24992Z"  stroke-linecap="round" stroke-linejoin="round"/>
</svg>
