<svg width="40" height="40" viewBox="0 0 40 40" fill="none" xmlns="http://www.w3.org/2000/svg">
<clipPath id="clip0">
<rect width="40" height="40" fill="white"/>
</clipPath>
<path d="M34.047 17.8793C33.6522 17.8793 33.2631 17.9174 32.8823 17.9931C32.468 16.0054 31.4433 14.191 29.93 12.7969C28.1207 11.1301 25.7683 10.2122 23.3062 10.2122C22.1053 10.2122 20.8796 10.4412 19.7614 10.8743C19.2749 11.0628 19.0333 11.6101 19.2218 12.0966C19.4102 12.5832 19.9572 12.8248 20.4441 12.6362C21.3467 12.2865 22.3364 12.1016 23.3062 12.1016C27.4256 12.1016 30.8055 15.1946 31.1682 19.2961C31.1948 19.5967 31.3632 19.8664 31.6217 20.0221C31.8802 20.1778 32.1975 20.2009 32.4755 20.0838C32.9729 19.8747 33.5017 19.7688 34.0472 19.7688C36.2877 19.7688 38.1105 21.5922 38.1105 23.8335C38.1105 26.0748 36.2873 27.8984 34.0463 27.8984C33.9201 27.8984 20.6178 27.8923 20.1785 27.8907C19.6947 27.8801 19.2773 28.2406 19.2223 28.7295C19.1638 29.248 19.5368 29.7158 20.0553 29.7741C20.176 29.7877 33.9075 29.7878 34.0463 29.7878C37.3292 29.7878 40.0001 27.1166 40.0001 23.8334C40 20.5504 37.3295 17.8793 34.047 17.8793Z" fill="#1473E6"/>
<path d="M0.94479 19.3894C0.423014 19.3894 0 19.8124 0 20.3342V27.8974C0 28.4192 0.423014 28.8422 0.94479 28.8422C1.46657 28.8422 1.88958 28.4192 1.88958 27.8974V20.3342C1.88958 19.8124 1.46657 19.3894 0.94479 19.3894Z" fill="#1473E6"/>
<path d="M5.78427 17.8926C5.26249 17.8926 4.83948 18.3156 4.83948 18.8374V27.7902C4.83948 28.312 5.26249 28.735 5.78427 28.735C6.30604 28.735 6.72906 28.312 6.72906 27.7902V18.8374C6.72906 18.3156 6.30604 17.8926 5.78427 17.8926Z" fill="#1473E6"/>
<path d="M10.7408 13.8835C10.2191 13.8835 9.79605 14.3066 9.79605 14.8283V28.8112C9.79605 29.333 10.2191 29.756 10.7408 29.756C11.2626 29.756 11.6856 29.333 11.6856 28.8112V14.8283C11.6856 14.3066 11.2626 13.8835 10.7408 13.8835Z" fill="#1473E6"/>
<path d="M15.8159 14.0435C15.2941 14.0435 14.8711 14.4665 14.8711 14.9882V28.8232C14.8711 29.345 15.2941 29.768 15.8159 29.768C16.3377 29.768 16.7607 29.345 16.7607 28.8232V14.9882C16.7607 14.4665 16.3377 14.0435 15.8159 14.0435Z" fill="#1473E6"/>

<defs>

</defs>
</svg>
