<svg width="25" height="25" viewBox="0 0 25 25" fill="none" xmlns="http://www.w3.org/2000/svg">
<path d="M23.9584 3.12498C22.9608 3.8286 21.8564 4.36676 20.6875 4.71873C20.0602 3.99738 19.2264 3.48611 18.299 3.25407C17.3716 3.02202 16.3953 3.08039 15.5022 3.42128C14.609 3.76218 13.8421 4.36914 13.3052 5.1601C12.7683 5.95105 12.4872 6.88783 12.5 7.84373V8.88539C10.6694 8.93286 8.85551 8.52687 7.21982 7.70357C5.58413 6.88027 4.17743 5.66522 3.12502 4.16664C3.12502 4.16664 -1.04165 13.5416 8.33335 17.7083C6.18807 19.1645 3.63248 19.8947 1.04169 19.7916C10.4167 25 21.875 19.7916 21.875 7.81248C21.8741 7.52232 21.8462 7.23289 21.7917 6.94789C22.8548 5.89945 23.605 4.57572 23.9584 3.12498V3.12498Z" stroke-linecap="round" stroke-linejoin="round"/>
</svg>
