<svg width="40" height="40" viewBox="0 0 40 40" fill="none" xmlns="http://www.w3.org/2000/svg">
<path d="M38.9643 4.27172C37.0929 1.86572 33.0829 2.26672 31.8799 2.46722C30.0085 2.80142 24.1272 5.54161 22.0553 11.7572L21.788 12.6929H22.8574C24.8624 12.4924 25.9317 12.6929 26.4664 13.2276C26.9342 13.6954 27.1347 14.5643 27.0011 15.9677C26.8674 17.5049 26.0654 19.2426 25.2634 20.7129L25.1966 20.8466C24.5951 21.9828 23.4589 24.1215 22.3227 24.2552C21.8549 24.322 21.3871 24.0547 20.9193 23.52C19.3821 21.8491 19.0479 18.8416 18.7806 16.1682C18.6469 15.2326 18.5801 14.4306 18.4464 13.6286L18.3127 12.8934C18.0454 11.2225 17.7112 9.41798 17.2433 7.81399C16.7086 6.1431 15.5056 4.00441 13.8347 3.53661C12.2307 3.0688 10.2256 3.6703 8.95584 4.4723C6.68345 5.8758 4.74526 7.61349 2.87396 9.28437C2.13877 10.0196 1.33677 10.7548 0.534772 11.4231C0.2005 11.6903 0 12.0913 0 12.4923C0 12.7596 0.133693 13.027 0.267306 13.2943C0.334113 13.3611 0.334113 13.428 0.400999 13.4948C0.668306 13.9626 1.0693 14.631 1.93819 14.7647C2.80707 14.8984 3.67588 14.6979 4.41107 14.4305C5.68096 14.0295 6.21557 13.8958 6.75026 14.8315C7.21807 15.7003 7.55226 16.7029 7.81965 17.7054C7.95334 18.1732 8.08695 18.7079 8.28745 19.1757C8.95576 21.1807 9.49045 23.3194 10.0919 25.6586L10.2924 26.5274C11.2281 30.4706 12.5648 35.8842 15.9733 37.3546C16.508 37.6219 17.0427 37.6888 17.6442 37.6888C19.3151 37.6888 21.1196 36.8868 22.1221 36.2853C26.0653 33.8793 28.8723 30.5375 30.9442 27.7973C36.5582 20.1114 39.4321 11.6235 39.8331 9.41791C40.2341 7.21241 39.9 5.47472 38.9643 4.27172ZM38.4964 9.21741C38.0954 11.2893 35.2215 19.6435 29.8748 26.9953C27.8699 29.6018 25.1965 32.8767 21.3869 35.0823C20.1839 35.8175 17.8447 36.6863 16.4412 36.0848C13.6341 34.8818 12.4311 29.8692 11.5623 26.1933L11.3618 25.3245C10.8271 22.9853 10.2924 20.8466 9.55734 18.7747C9.42364 18.3069 9.29003 17.8391 9.15634 17.3712C8.88903 16.3687 8.55484 15.2326 7.95334 14.2301C7.28503 13.1607 6.54984 12.8266 5.74784 12.8266C5.14634 12.8266 4.54484 13.0271 4.01015 13.0939C3.34185 13.2944 2.74027 13.4949 2.13877 13.4281C1.93827 13.4281 1.33677 12.6261 1.26996 12.4924C2.13877 11.8241 3.00765 11.022 3.80965 10.2869C5.68104 8.61599 7.55234 6.94518 9.69103 5.74218C10.6935 5.14069 12.2975 4.60599 13.5006 4.94019C14.57 5.20749 15.5725 6.81157 16.0403 8.28187C16.5081 9.75226 16.7755 11.5568 17.0428 13.1608L17.1765 13.8959C17.2433 14.6311 17.377 15.4331 17.4438 16.3019C17.7111 19.1758 18.0453 22.4507 19.9167 24.4557C20.7187 25.3245 21.5876 25.7256 22.4564 25.5919C24.2609 25.3246 25.5307 22.9854 26.3327 21.4482L26.3995 21.3145C27.2015 19.7773 28.1372 17.9059 28.2709 16.1014C28.4046 14.2969 28.1372 13.0939 27.3352 12.2919C26.4664 11.4231 25.1297 11.2225 23.7262 11.2894C25.9317 5.9426 31.0779 4.00441 32.0804 3.8708C33.0829 3.6703 36.4915 3.33611 37.895 5.14069C38.6301 6.07622 38.8306 7.3461 38.4964 9.21741Z" fill="#1473E6"/>
</svg>
