<svg width="25" height="25" viewBox="0 0 25 25" fill="none" xmlns="http://www.w3.org/2000/svg">
<path d="M23.4792 6.68758C23.3554 6.19322 23.1034 5.74026 22.7486 5.37446C22.3938 5.00867 21.9487 4.74298 21.4583 4.60425C19.6667 4.16675 12.5 4.16675 12.5 4.16675C12.5 4.16675 5.33334 4.16675 3.54167 4.64591C3.0513 4.78465 2.60623 5.05033 2.25141 5.41613C1.89658 5.78193 1.64458 6.23488 1.52084 6.72925C1.19294 8.54754 1.03254 10.3921 1.04167 12.2397C1.02998 14.1012 1.19039 15.9598 1.52084 17.7918C1.65725 18.2708 1.91491 18.7065 2.26891 19.0568C2.6229 19.4072 3.06128 19.6603 3.54167 19.7918C5.33334 20.2709 12.5 20.2709 12.5 20.2709C12.5 20.2709 19.6667 20.2709 21.4583 19.7918C21.9487 19.653 22.3938 19.3873 22.7486 19.0215C23.1034 18.6557 23.3554 18.2028 23.4792 17.7084C23.8045 15.9038 23.9649 14.0733 23.9583 12.2397C23.97 10.3782 23.8096 8.51956 23.4792 6.68758V6.68758Z" stroke-linecap="round" stroke-linejoin="round"/>
<path d="M10.1562 15.6458L16.1458 12.2395L10.1562 8.83325V15.6458Z" stroke-linecap="round" stroke-linejoin="round"/>
</svg>
