<svg width="319" height="89" viewBox="0 0 319 89" fill="none" xmlns="http://www.w3.org/2000/svg">
<rect width="318.62" height="89" rx="16" fill="#0047BA"/>
<path d="M53.0076 29.6146L58.0592 17.8H67.6472L73.9735 53.9055H64.3349L61.1237 33.1238L54.7126 46.4703H53.0076H51.3009L44.8899 33.1238L41.6786 53.9055H32.04L38.3663 17.8H47.9544L53.0076 29.6146Z" fill="white"/>
<path d="M96.4815 29.3415H105.476V53.9056H96.4815V51.1766C94.57 53.5076 91.9831 54.6726 88.7208 54.6715C86.972 54.6903 85.2384 54.3563 83.6301 53.6908C82.1 53.0492 80.7212 52.112 79.5777 50.9365C78.408 49.7314 77.4932 48.3161 76.8849 46.7704C76.2281 45.1046 75.9007 43.334 75.9199 41.5509C75.9131 39.8407 76.2342 38.1443 76.8669 36.5477C77.4566 35.0188 78.3417 33.6129 79.475 32.4053C80.6013 31.2199 81.963 30.267 83.4785 29.6037C85.0947 28.9045 86.8483 28.5538 88.6181 28.5755C91.7815 28.5755 94.4016 29.6447 96.4783 31.7831L96.4815 29.3415ZM85.2129 41.5509C85.1989 43.05 85.793 44.4944 86.8674 45.5733C87.3857 46.0898 88.0083 46.4973 88.6963 46.7704C89.4249 47.0617 90.2065 47.2083 90.9947 47.2015C91.7668 47.2049 92.5317 47.0583 93.2442 46.7704C93.9315 46.4969 94.5535 46.0894 95.0715 45.5733C95.5871 45.0571 96.0052 44.4574 96.3071 43.8014C96.6222 43.1245 96.7828 42.3897 96.7782 41.6472C96.781 40.8968 96.6205 40.1541 96.3071 39.4678C96.0088 38.8028 95.5903 38.1948 95.0715 37.6722C94.5531 37.1566 93.9312 36.7492 93.2442 36.4751C92.5317 36.1871 91.7668 36.0405 90.9947 36.0439C90.2065 36.0372 89.4249 36.1838 88.6963 36.4751C88.0086 36.7488 87.3861 37.1562 86.8674 37.6722C86.3594 38.1803 85.9492 38.7724 85.6563 39.4204C85.3571 40.093 85.206 40.8186 85.2129 41.5509" fill="white"/>
<path d="M128.978 37.2898C127.43 36.2686 125.865 35.7579 124.284 35.7579C123.464 35.7515 122.65 35.8973 121.886 36.1875C121.157 36.466 120.492 36.8814 119.93 37.4099C119.369 37.9401 118.926 38.5752 118.626 39.2766C118.303 40.0436 118.143 40.8661 118.156 41.6944C118.146 42.5067 118.306 43.3126 118.626 44.0634C118.925 44.761 119.361 45.3955 119.91 45.9317C120.468 46.4662 121.134 46.882 121.867 47.1524C122.639 47.4425 123.461 47.5888 124.289 47.5836C125.968 47.5836 127.533 47.025 128.983 45.908V53.2816C126.776 54.2071 124.684 54.6698 122.706 54.6698C120.909 54.6783 119.126 54.37 117.443 53.7601C115.808 53.1785 114.31 52.2886 113.033 51.1419C111.756 49.9952 110.727 48.6145 110.005 47.0798C109.227 45.419 108.838 43.6126 108.864 41.7892C108.841 39.9556 109.214 38.1376 109.957 36.4512C110.648 34.8848 111.656 33.4686 112.922 32.2867C114.211 31.0974 115.732 30.1691 117.395 29.5561C119.169 28.8944 121.055 28.5617 122.955 28.5754C125.046 28.5567 127.113 29.0155 128.987 29.9146L128.978 37.2898Z" fill="white"/>
<path d="M133.075 29.3414H142.021V33.3623C142.89 31.9781 144.095 30.8198 145.53 29.9874C146.918 29.2062 148.535 28.815 150.383 28.814H151.149C151.472 28.8188 151.795 28.8511 152.112 28.9103V37.1936C150.915 36.6163 149.594 36.3209 148.257 36.3313C146.181 36.3313 144.624 36.9299 143.587 38.127C142.55 39.3241 142.031 41.0718 142.029 43.3702V53.9055H133.075V29.3414Z" fill="white"/>
<path d="M154.748 41.4087C154.736 39.6477 155.126 37.9058 155.889 36.3076C156.639 34.7385 157.716 33.3367 159.052 32.1904C160.466 30.9887 162.101 30.0549 163.872 29.4378C165.828 28.7509 167.896 28.4101 169.976 28.4318C172.038 28.4134 174.087 28.7454 176.03 29.4125C177.804 30.0202 179.445 30.946 180.865 32.1415C182.223 33.294 183.31 34.7145 184.054 36.3076C184.828 37.9867 185.217 39.8084 185.195 41.6472C185.217 43.488 184.821 45.3111 184.034 46.9867C183.279 48.5732 182.193 49.9916 180.846 51.1528C179.423 52.3584 177.768 53.278 175.975 53.8581C173.994 54.5098 171.914 54.8334 169.821 54.8152C167.769 54.8351 165.729 54.5113 163.79 53.8581C162.028 53.2653 160.406 52.3351 159.022 51.1228C157.684 49.9361 156.616 48.4926 155.884 46.884C155.107 45.1559 154.718 43.2873 154.743 41.4024L154.748 41.4087ZM164.183 41.4971C164.173 42.2787 164.333 43.0536 164.653 43.7713C164.95 44.4367 165.369 45.0449 165.888 45.5669C166.406 46.0834 167.029 46.4909 167.717 46.764C169.157 47.3389 170.774 47.3389 172.214 46.764C172.902 46.4901 173.524 46.0827 174.043 45.5669C174.562 45.0445 174.981 44.4364 175.279 43.7713C175.595 43.0693 175.755 42.3105 175.748 41.5445C175.752 40.7946 175.592 40.0525 175.279 39.3667C174.981 38.7016 174.562 38.0935 174.043 37.571C173.527 37.0592 172.908 36.6542 172.226 36.3803C170.785 35.8054 169.169 35.8054 167.728 36.3803C167.041 36.6539 166.418 37.0614 165.9 37.5774C165.384 38.0935 164.966 38.6933 164.664 39.3493C164.349 40.0263 164.189 40.761 164.194 41.5034" fill="white"/>
<path d="M197.432 66.1638H188.486V29.3414H197.432V32.0704C199.343 29.7415 201.946 28.5765 205.241 28.5755C206.987 28.5619 208.714 28.9125 210.307 29.6036C211.842 30.2707 213.226 31.2225 214.383 32.4052C215.552 33.6112 216.467 35.0262 217.077 36.5713C217.727 38.2055 218.053 39.9434 218.04 41.6945C218.056 43.431 217.729 45.1544 217.077 46.7719C216.462 48.2944 215.556 49.6911 214.407 50.8891C213.25 52.0951 211.845 53.0542 210.284 53.7055C208.723 54.3567 207.039 54.6857 205.339 54.6714C202.174 54.6714 199.538 53.6186 197.43 51.5129L197.432 66.1638ZM208.7 41.6945C208.704 40.9494 208.562 40.2105 208.281 39.5167C208.01 38.8435 207.598 38.2321 207.07 37.7211C206.536 37.2065 205.907 36.7925 205.217 36.5003C204.503 36.2035 203.735 36.0483 202.958 36.044C202.181 36.0396 201.411 36.1862 200.693 36.475C200.016 36.754 199.403 37.1615 198.89 37.6737C198.371 38.195 197.952 38.8027 197.655 39.4677C197.341 40.154 197.181 40.8967 197.185 41.6471C197.179 42.387 197.33 43.1202 197.629 43.8013C197.916 44.4587 198.336 45.0533 198.866 45.5495C199.405 46.0529 200.033 46.4583 200.719 46.7466C201.427 47.0499 202.193 47.2049 202.967 47.2015C203.731 47.2063 204.488 47.0602 205.192 46.7719C205.87 46.4929 206.483 46.0854 206.995 45.5732C207.51 45.0566 207.928 44.457 208.231 43.8013C208.542 43.1399 208.702 42.4213 208.7 41.6945" fill="#FFE800"/>
<path d="M241.853 29.3415H250.849V53.9056H241.853V51.1766C239.942 53.5076 237.356 54.6726 234.093 54.6715C232.345 54.6903 230.611 54.3563 229.003 53.6908C227.473 53.0492 226.094 52.112 224.95 50.9365C223.78 49.7315 222.865 48.3162 222.256 46.7704C221.6 45.1043 221.274 43.3338 221.293 41.5509C221.284 39.8413 221.602 38.145 222.231 36.5477C222.825 35.018 223.714 33.612 224.851 32.4053C225.977 31.2199 227.339 30.267 228.854 29.6037C230.471 28.9045 232.224 28.5538 233.994 28.5755C237.157 28.5755 239.777 29.6447 241.853 31.7831V29.3415ZM230.582 41.5509C230.57 43.05 231.165 44.494 232.238 45.5733C232.757 46.0898 233.379 46.4973 234.067 46.7704C234.796 47.0618 235.578 47.2085 236.366 47.2015C237.137 47.2053 237.902 47.0586 238.614 46.7704C239.301 46.4965 239.924 46.0891 240.443 45.5733C240.958 45.0567 241.376 44.4571 241.678 43.8014C241.996 43.125 242.158 42.3902 242.156 41.6472C242.159 40.8969 241.999 40.1542 241.686 39.4678C241.387 38.8032 240.969 38.1952 240.451 37.6722C239.931 37.1569 239.309 36.7495 238.622 36.4751C237.91 36.1869 237.145 36.0402 236.374 36.0439C235.586 36.037 234.804 36.1836 234.076 36.4751C233.388 36.7488 232.765 37.1562 232.247 37.6722C231.738 38.1799 231.328 38.7721 231.035 39.4204C230.735 40.0926 230.583 40.8184 230.59 41.5509" fill="#FFE800"/>
<path d="M266.615 50.5543L254.357 29.3414H264.737L271.507 41.9346L278.081 29.3414H288.36L267.999 66.1639H257.964L266.615 50.5543Z" fill="#FFE800"/>
<path d="M239.737 63.4948C239.737 62.7504 239.508 62.0228 239.081 61.404C238.654 60.7853 238.047 60.3033 237.337 60.0191C236.626 59.7348 235.845 59.6611 235.092 59.8072C234.338 59.9534 233.647 60.3128 233.104 60.8401L233.089 60.8543L233.065 60.8811L233.029 60.919L232.98 60.9664L232.921 61.0233C232.899 61.0454 232.874 61.0659 232.851 61.0896L232.77 61.1638C232.739 61.1923 232.706 61.2175 232.677 61.2475C232.648 61.2775 232.605 61.306 232.573 61.3376C232.54 61.3691 232.493 61.3991 232.457 61.4355L232.442 61.4465C232.384 61.4844 232.336 61.5334 232.279 61.5744C232.222 61.6155 232.16 61.666 232.1 61.7103C232.04 61.7545 231.973 61.8034 231.909 61.8492C231.846 61.895 231.774 61.944 231.707 61.993C231.64 62.0419 231.565 62.0877 231.495 62.1382C231.425 62.1888 231.345 62.2346 231.272 62.2867C231.198 62.3388 231.109 62.383 231.037 62.4367C230.965 62.4904 230.874 62.5331 230.793 62.5868C230.711 62.6405 230.62 62.6831 230.538 62.7447C230.447 62.793 230.358 62.8457 230.273 62.9026C230.18 62.9532 230.084 62.9942 229.997 63.0605C229.911 63.1269 229.824 63.1521 229.738 63.1964C229.652 63.2406 229.528 63.3006 229.422 63.3543C229.316 63.408 229.203 63.4569 229.096 63.5122C228.981 63.5591 228.869 63.6118 228.76 63.6702C228.641 63.7137 228.525 63.7638 228.413 63.8202C228.291 63.8628 228.172 63.9112 228.056 63.9655C227.93 64.0097 227.808 64.0539 227.689 64.1092C227.56 64.1477 227.434 64.1936 227.311 64.2466C227.051 64.3371 226.789 64.423 226.525 64.504L226.383 64.5466C226.097 64.633 225.81 64.7141 225.521 64.7899C225.37 64.8178 225.221 64.8547 225.074 64.9004C224.92 64.9257 224.768 64.9599 224.618 65.0031C224.461 65.025 224.305 65.0561 224.152 65.0962C223.991 65.1148 223.831 65.1433 223.674 65.1815C223.51 65.1956 223.346 65.2204 223.185 65.2557C223.018 65.2668 222.852 65.2884 222.688 65.3205C222.518 65.3279 222.349 65.3458 222.181 65.3742C222.073 65.3742 221.966 65.3916 221.855 65.4058C221.84 65.4058 221.827 65.4058 221.814 65.4058C221.65 65.4118 221.487 65.4281 221.325 65.4547C221.288 65.4547 221.255 65.4437 221.218 65.4437C221.07 65.4496 220.923 65.4644 220.777 65.4879C220.719 65.4879 220.663 65.4705 220.603 65.4705C220.473 65.4705 220.349 65.4958 220.222 65.5068C220.138 65.5068 220.059 65.4832 219.975 65.4832C219.866 65.4832 219.764 65.5068 219.649 65.5147C219.535 65.5226 219.439 65.4832 219.323 65.4832C219.239 65.4832 219.16 65.5021 219.077 65.5068C218.95 65.4958 218.826 65.4705 218.696 65.4705C218.636 65.4705 218.58 65.4847 218.521 65.4879C218.376 65.4643 218.229 65.4496 218.081 65.4437C218.045 65.4437 218.011 65.4532 217.975 65.4547C217.814 65.4283 217.65 65.412 217.486 65.4058C217.472 65.4058 217.459 65.4058 217.446 65.4058C217.338 65.3916 217.232 65.3805 217.12 65.3742C216.952 65.3457 216.783 65.3278 216.613 65.3205C216.451 65.2887 216.288 65.2671 216.124 65.2557C215.963 65.2205 215.799 65.1957 215.635 65.1815C215.478 65.1432 215.319 65.1148 215.159 65.0962C215.005 65.0564 214.85 65.0253 214.692 65.0031C214.542 64.9599 214.389 64.9257 214.234 64.9004C214.089 64.8547 213.94 64.8178 213.789 64.7899C213.646 64.7425 213.5 64.7029 213.353 64.6714C213.213 64.6218 213.07 64.5801 212.925 64.5466C212.88 64.5309 212.833 64.5182 212.784 64.504C212.653 64.4553 212.521 64.4131 212.386 64.3777C212.26 64.3218 212.131 64.2728 212 64.2308C211.877 64.1778 211.751 64.1319 211.623 64.0934C211.502 64.0381 211.38 63.9939 211.255 63.9497C211.138 63.8955 211.019 63.847 210.898 63.8044C210.785 63.748 210.67 63.6979 210.552 63.6544C210.443 63.5963 210.331 63.5436 210.216 63.4964C210.107 63.4427 210.003 63.3843 209.89 63.3385C209.778 63.2927 209.685 63.2248 209.576 63.1806C209.466 63.1364 209.413 63.0827 209.316 63.0448C209.22 63.0068 209.132 62.9453 209.041 62.8868C208.95 62.8284 208.863 62.7842 208.775 62.7289C208.687 62.6736 208.612 62.6278 208.519 62.571C208.426 62.5141 208.356 62.4699 208.275 62.4209C208.193 62.372 208.112 62.3183 208.04 62.2709C207.968 62.2235 207.895 62.1683 207.817 62.1225C207.739 62.0767 207.678 62.0214 207.605 61.9772C207.532 61.9329 207.474 61.8777 207.403 61.8334C207.331 61.7892 207.28 61.7371 207.212 61.6945C207.144 61.6518 207.096 61.5997 207.033 61.5587C206.969 61.5176 206.928 61.4686 206.87 61.4307L206.855 61.4197C206.819 61.3834 206.777 61.3549 206.739 61.3218C206.702 61.2886 206.669 61.2633 206.637 61.2317C206.604 61.2002 206.573 61.1765 206.542 61.148L206.461 61.0738C206.438 61.0501 206.415 61.0296 206.39 61.0075L206.332 60.9506C206.315 60.9348 206.301 60.9175 206.285 60.9033L206.247 60.8654L206.223 60.8385L206.21 60.8243C205.852 60.4634 205.424 60.1753 204.95 59.9768C204.476 59.7782 203.966 59.6733 203.449 59.6681C202.933 59.6628 202.421 59.7574 201.943 59.9463C201.465 60.1352 201.03 60.4146 200.665 60.7681C200.299 61.1216 200.011 61.5422 199.815 62.0052C199.62 62.4682 199.521 62.9643 199.526 63.4646C199.531 63.9648 199.639 64.4591 199.843 64.9185C200.047 65.3779 200.344 65.7932 200.716 66.1401L200.728 66.1528L200.754 66.1765L200.793 66.2159C200.811 66.2333 200.829 66.2507 200.848 66.2665C200.868 66.2823 200.894 66.3107 200.917 66.3312C200.94 66.3518 200.97 66.3818 200.998 66.407C201.026 66.4323 201.063 66.4655 201.096 66.4955C201.129 66.5255 201.169 66.5602 201.207 66.5934C201.244 66.6266 201.29 66.6645 201.331 66.7008C201.371 66.7371 201.425 66.7797 201.471 66.8192C201.517 66.8587 201.574 66.9029 201.624 66.9472C201.802 67.1233 201.998 67.282 202.208 67.4209C202.266 67.4636 202.319 67.5141 202.371 67.5536C202.423 67.5931 202.493 67.6531 202.558 67.6957C202.623 67.7384 202.689 67.7984 202.76 67.8442C202.832 67.89 202.9 67.95 202.977 68.0021C203.054 68.0542 203.127 68.1127 203.209 68.16C203.29 68.2074 203.372 68.2753 203.453 68.3259C203.535 68.3764 203.616 68.4443 203.714 68.498C203.812 68.5517 203.895 68.6164 203.988 68.6733C204.081 68.7302 204.178 68.7949 204.278 68.8518C204.377 68.9086 204.478 68.9749 204.583 69.035C204.687 69.095 204.793 69.1597 204.909 69.2197C205.024 69.2797 205.13 69.3461 205.235 69.4077C205.449 69.551 205.678 69.6732 205.918 69.7725C206.033 69.8382 206.152 69.8978 206.275 69.9509C206.395 70.0175 206.518 70.0776 206.645 70.131C206.77 70.1986 206.899 70.2587 207.031 70.311C207.161 70.3778 207.294 70.4374 207.43 70.4895C207.565 70.5565 207.704 70.6155 207.846 70.6664C207.986 70.7337 208.131 70.7927 208.278 70.8432C208.427 70.9132 208.581 70.9728 208.739 71.0217C208.889 71.0883 209.043 71.1453 209.201 71.1922C209.521 71.3087 209.843 71.4188 210.167 71.5223C210.415 71.6276 210.674 71.7065 210.94 71.7576C211.107 71.8162 211.278 71.8637 211.452 71.8998C211.624 71.9565 211.801 72.0014 211.98 72.034C212.158 72.0894 212.34 72.1327 212.524 72.1635C212.707 72.217 212.893 72.2577 213.082 72.2851C213.271 72.336 213.463 72.374 213.657 72.3988C214.259 72.5114 214.863 72.6082 215.47 72.6894C215.679 72.7314 215.892 72.7573 216.106 72.7668C216.37 72.8215 216.639 72.849 216.909 72.8489H216.95C217.132 72.8797 217.315 72.8976 217.499 72.9026C217.535 72.9026 217.569 72.8931 217.605 72.8916C217.767 72.918 217.93 72.9343 218.094 72.9405C218.155 72.9405 218.21 72.9263 218.27 72.9231C218.416 72.9454 218.562 72.9596 218.709 72.9658C218.794 72.9658 218.872 72.9468 218.955 72.9421C219.081 72.9611 219.209 72.9738 219.336 72.98C219.446 72.98 219.548 72.9563 219.662 72.9484C219.777 72.9405 219.871 72.98 219.989 72.98C220.116 72.9738 220.244 72.9611 220.37 72.9421C220.453 72.9421 220.533 72.9658 220.616 72.9658C220.763 72.9596 220.91 72.9453 221.056 72.9231C221.115 72.9231 221.17 72.9405 221.231 72.9405C221.395 72.9344 221.558 72.9181 221.72 72.8916C221.756 72.8916 221.79 72.9026 221.827 72.9026C222.011 72.8976 222.194 72.8796 222.375 72.8489H222.416C222.686 72.8491 222.955 72.8215 223.219 72.7668C223.433 72.7573 223.646 72.7314 223.855 72.6894C224.264 72.6344 224.672 72.5728 225.079 72.5046C225.278 72.484 225.476 72.4486 225.669 72.3988C225.863 72.3739 226.055 72.3359 226.243 72.2851C226.432 72.2577 226.619 72.217 226.802 72.1635C226.986 72.1325 227.167 72.0892 227.345 72.034C227.524 72.0016 227.701 71.9567 227.873 71.8998C228.047 71.8639 228.219 71.8164 228.387 71.7576C228.652 71.7063 228.911 71.6274 229.159 71.5223C229.326 71.4803 229.489 71.4275 229.648 71.3644C229.811 71.3185 229.969 71.2626 230.124 71.197C230.281 71.1482 230.434 71.0896 230.582 71.0217C230.735 70.9742 230.884 70.9167 231.029 70.8495C231.176 70.7987 231.32 70.7397 231.459 70.6727C231.601 70.6218 231.74 70.5628 231.875 70.4958C232.012 70.4437 232.146 70.3841 232.276 70.3173C232.408 70.2647 232.536 70.2046 232.661 70.1373C232.788 70.084 232.912 70.0239 233.032 69.9573C233.154 69.9041 233.273 69.8445 233.388 69.7788C233.627 69.6795 233.856 69.5573 234.071 69.414C234.183 69.3524 234.299 69.2971 234.397 69.226C234.494 69.155 234.613 69.1108 234.723 69.0413C234.832 68.9718 234.931 68.926 235.028 68.8581C235.124 68.7902 235.225 68.7444 235.318 68.6796C235.411 68.6149 235.504 68.5675 235.592 68.5043C235.68 68.4411 235.768 68.3938 235.852 68.3322C235.937 68.2706 236.015 68.2248 236.098 68.1664C236.182 68.1079 236.261 68.0621 236.33 68.0084C236.398 67.9547 236.473 67.9058 236.545 67.8505C236.617 67.7952 236.68 67.751 236.747 67.702C236.814 67.6531 236.871 67.6073 236.935 67.5599C236.998 67.5125 237.047 67.4699 237.108 67.4272C237.317 67.2879 237.513 67.1292 237.691 66.9535C237.74 66.9092 237.795 66.8729 237.844 66.8255C237.893 66.7782 237.939 66.7513 237.983 66.7071C238.027 66.6629 238.068 66.6376 238.108 66.5997C238.149 66.5618 238.183 66.5365 238.219 66.5018C238.255 66.4671 238.284 66.4449 238.315 66.4134L238.399 66.3375L238.467 66.2728L238.521 66.2223L238.562 66.1828L238.586 66.1591L238.599 66.148C238.961 65.799 239.248 65.384 239.444 64.9271C239.64 64.4701 239.74 63.9801 239.74 63.4854" fill="#FFE800"/>
</svg>
